<svg xmlns="http://www.w3.org/2000/svg" viewBox="0 0 202.42 55.56"><defs><style>.cls-1{opacity:0.9;}.cls-2{fill:#3a3a3a;}.cls-3{fill:#e74340;}.cls-4{fill:#ea5754;}.cls-5{fill:#232323;}</style></defs><g id="圖層_2" data-name="圖層 2"><g id="圖層_1-2" data-name="圖層 1"><g class="cls-1"><path class="cls-2" d="M59.57,33.39c.08,0-.12-.23-.14-.28C59.36,33.24,59.62,33.45,59.57,33.39Z" transform="translate(-0.39 -0.27)"/><polygon class="cls-2" points="58.51 34.41 58.46 34.3 58.47 34.65 58.51 34.41"/><path class="cls-2" d="M57.88,35.35c.35.35.33-.3.61-.28l.09.07-.14-.38C58.26,35,58.11,35.37,57.88,35.35Z" transform="translate(-0.39 -0.27)"/><path class="cls-2" d="M56.78,34.78c.13.15,0,.21.16,0l0,0A.19.19,0,0,1,56.78,34.78Z" transform="translate(-0.39 -0.27)"/><path class="cls-2" d="M56.89,34.73c.1-.07-.15-.09,0,0Z" transform="translate(-0.39 -0.27)"/><path class="cls-2" d="M56.45,35.11l.06-.22c-.09-.08-.23,0-.22-.13C56.19,34.92,56.27,35,56.45,35.11Z" transform="translate(-0.39 -0.27)"/><path class="cls-2" d="M56.49,35.5l0-.1S56.46,35.36,56.49,35.5Z" transform="translate(-0.39 -0.27)"/><path class="cls-2" d="M56.61,35.18l-.08.22c.06.05.14.19,0-.09C56.63,35.44,56.59,35.3,56.61,35.18Z" transform="translate(-0.39 -0.27)"/><path class="cls-2" d="M56.74,35.19c.13,0,.27,0,.21.27C57.19,35.24,57,35,56.74,35.19Z" transform="translate(-0.39 -0.27)"/><path class="cls-2" d="M58.09,35.81l.18,0v-.2C58.28,35.76,58,35.69,58.09,35.81Z" transform="translate(-0.39 -0.27)"/><path class="cls-2" d="M55.43,35.37a3.25,3.25,0,0,0,.25.34l0-.16C55.65,35.51,55.51,35.51,55.43,35.37Z" transform="translate(-0.39 -0.27)"/><path class="cls-2" d="M55.68,35.71,55.6,36C55.76,35.89,55.74,35.8,55.68,35.71Z" transform="translate(-0.39 -0.27)"/><polygon class="cls-2" points="56.33 35.72 56.41 35.24 56.28 35.75 56.33 35.72"/><polygon class="cls-2" points="54.42 35.4 54.41 35.14 54.4 35.54 54.42 35.4"/><path class="cls-2" d="M54.42,35.89c0-.21-.23-.26-.21-.4a.81.81,0,0,0-.14.46C54.12,35.83,54.23,35.8,54.42,35.89Z" transform="translate(-0.39 -0.27)"/><path class="cls-2" d="M54,36.21a1.26,1.26,0,0,0,.06-.26A.55.55,0,0,0,54,36.21Z" transform="translate(-0.39 -0.27)"/><path class="cls-2" d="M55.3,36a.5.5,0,0,0-.26-.2l.19.23Z" transform="translate(-0.39 -0.27)"/><path class="cls-2" d="M55.24,36.08h0l-.15,0Z" transform="translate(-0.39 -0.27)"/><path class="cls-2" d="M55.31,36h0S55.32,36.07,55.31,36Z" transform="translate(-0.39 -0.27)"/><path class="cls-2" d="M56.17,36c0,.19-.15.46.17.57C56.31,36.35,56.13,36.28,56.17,36Z" transform="translate(-0.39 -0.27)"/><path class="cls-2" d="M55.56,36.32l.2,0a.41.41,0,0,1-.11-.25Z" transform="translate(-0.39 -0.27)"/><polygon class="cls-2" points="55.12 36.18 55.16 36.05 55.09 36.06 55.12 36.18"/><path class="cls-2" d="M54.42,36.33a.36.36,0,0,1-.19.26.65.65,0,0,0,.34-.06C54.55,36.44,54.52,36.27,54.42,36.33Z" transform="translate(-0.39 -0.27)"/><path class="cls-2" d="M54.83,36.24v0S54.85,36.28,54.83,36.24Z" transform="translate(-0.39 -0.27)"/><polygon class="cls-2" points="52.89 36.7 52.92 36.74 52.91 36.7 52.89 36.7"/><path class="cls-2" d="M54.61,36.57c.1,0,.12-.06.12-.17a.4.4,0,0,1-.16.13S54.59,36.6,54.61,36.57Z" transform="translate(-0.39 -0.27)"/><path class="cls-2" d="M53.8,36.45a.88.88,0,0,0,.2.09C53.92,36.47,53.79,36.37,53.8,36.45Z" transform="translate(-0.39 -0.27)"/><path class="cls-2" d="M54.76,36.2v0S54.73,36.16,54.76,36.2Z" transform="translate(-0.39 -0.27)"/><path class="cls-2" d="M54.76,36.2a1.06,1.06,0,0,0,0,.2.42.42,0,0,0,.09-.14Z" transform="translate(-0.39 -0.27)"/><path class="cls-2" d="M53.63,38.84c-.07-.26.06-.58.35-.38.11-.26-.34-1-.67-1.45a.43.43,0,0,1-.05.44c.12.11.53.16.47.45s-.24,0-.41-.1c.22.28-.15.57.07,1l.17-.24C53.59,38.65,53.55,38.79,53.63,38.84Z" transform="translate(-0.39 -0.27)"/><path class="cls-2" d="M53.67,36.91l.06-.06c-.1,0-.2-.09-.39-.24a.54.54,0,0,0,0,.36l.38-.11Z" transform="translate(-0.39 -0.27)"/><path class="cls-2" d="M54.06,36.71c0,.3-.08.48.15.73.22-.11.06-.29.14-.46-.32.21,0-.2-.28-.24a.38.38,0,0,1,.16-.15.86.86,0,0,1-.23-.05h0s.05,0,0,0h0a.43.43,0,0,1,0,.11c-.12,0,0-.07,0-.11l0,0h0l-.28.3A.61.61,0,0,0,54.06,36.71Z" transform="translate(-0.39 -0.27)"/><path class="cls-2" d="M56.44,37.22l0,0S56.39,37.24,56.44,37.22Z" transform="translate(-0.39 -0.27)"/><path class="cls-2" d="M56.21,37.14s0-.17.08-.18.06.12.11.21c0-.1.08-.28-.15-.33v0a1.1,1.1,0,0,1-.53-.3A3.58,3.58,0,0,0,56.21,37.14Z" transform="translate(-0.39 -0.27)"/><path class="cls-2" d="M55.14,37l-.23.26.25.17-.07-.14C55.29,37.29,55.17,37.14,55.14,37Z" transform="translate(-0.39 -0.27)"/><polygon class="cls-2" points="52.8 36.58 52.73 36.27 52.72 36.75 52.8 36.58"/><polygon class="cls-2" points="52.44 36.75 52.36 36.49 52.31 36.68 52.44 36.75"/><path class="cls-2" d="M43,22.63l-.06-.11A.2.2,0,0,0,43,22.63Z" transform="translate(-0.39 -0.27)"/><path class="cls-2" d="M42.8,23.32l.13.05C42.87,23.32,42.81,23.3,42.8,23.32Z" transform="translate(-0.39 -0.27)"/><path class="cls-2" d="M45.66,35.79c.18-.21.5-.46.22-.34l-.26.15C45.7,35.65,45.7,35.71,45.66,35.79Z" transform="translate(-0.39 -0.27)"/><path class="cls-2" d="M43.39,29.34l-.09,0,.27.13C43.51,29.45,43.46,29.39,43.39,29.34Z" transform="translate(-0.39 -0.27)"/><path class="cls-2" d="M42.19,29.08l.22-.16A.54.54,0,0,0,42.19,29.08Z" transform="translate(-0.39 -0.27)"/><path class="cls-2" d="M43.32,18.76,43,18.59C43,18.77,43.17,18.72,43.32,18.76Z" transform="translate(-0.39 -0.27)"/><path class="cls-2" d="M49.07,37.94c-.1-.12-.17-.17-.24-.18C48.94,37.93,49,38.18,49.07,37.94Z" transform="translate(-0.39 -0.27)"/><path class="cls-2" d="M46,23.45a.25.25,0,0,0-.16-.11A.16.16,0,0,0,46,23.45Z" transform="translate(-0.39 -0.27)"/><path class="cls-2" d="M48.57,37.74a.43.43,0,0,0,0,.07.25.25,0,0,1,.22-.05C48.75,37.63,48.67,37.54,48.57,37.74Z" transform="translate(-0.39 -0.27)"/><path class="cls-2" d="M46,5l0,0S46,5,46,5Z" transform="translate(-0.39 -0.27)"/><path class="cls-2" d="M49.67,1.46a.51.51,0,0,1,0,.17S49.7,1.55,49.67,1.46Z" transform="translate(-0.39 -0.27)"/><path class="cls-2" d="M51.29,37.37c.07,0,0,0,0,0Z" transform="translate(-0.39 -0.27)"/><path class="cls-2" d="M52,38.39a.27.27,0,0,0,0,.15A.27.27,0,0,1,52,38.39Z" transform="translate(-0.39 -0.27)"/><path class="cls-2" d="M47.51,39.44Z" transform="translate(-0.39 -0.27)"/><path class="cls-2" d="M51.44,37.47l-.12-.06A.33.33,0,0,0,51.44,37.47Z" transform="translate(-0.39 -0.27)"/><path class="cls-2" d="M51.39,37.34h.07C51.46,37.3,51.44,37.27,51.39,37.34Z" transform="translate(-0.39 -0.27)"/><path class="cls-2" d="M51.18,37.41h.14s0,0,0,0Z" transform="translate(-0.39 -0.27)"/><path class="cls-2" d="M45.48,12.52l0,0C45.4,12.39,45.42,12.43,45.48,12.52Z" transform="translate(-0.39 -0.27)"/><polygon class="cls-2" points="41.7 34.18 41.71 34.19 41.72 34.17 41.7 34.18"/><path class="cls-2" d="M41.81,34.11c.39.11.36.2.3.33l.82-.25Z" transform="translate(-0.39 -0.27)"/><path class="cls-2" d="M43.16,20.94l-.3.18c-.38-.35-.2-.52-.61-.37.91.19-.06.9.84,1.1l-.21.11s0-.06,0-.1c-.49.22.62.34.42.69-.09.12-.24.19-.33.08l.17.33c0,.08-.19,0-.16-.05v.46h0a2.45,2.45,0,0,1,.41.36c-.15.09-.09-.08-.2-.07l.17.29a.31.31,0,0,1-.38-.36c-1,.07.19.25-.43.65L42.43,24c-.55.06-.39.27-.76.48.18,0,.91-.38,1.09-.07-.09.06-.14.15,0,.33-.32-.06-.27.1-.28.28l-.43-.09c.09.21.31.24.48.39-.08.2-.42.19-.7.19-.13.33.57-.14.58.27-.22.26-.08.49.12.88-.18.18-.25-.08-.39,0l.31.24s-.12,0-.17,0c.11.18.43.09.51.35.46.14-.78.37-.28.75-.14.06-.26-.07-.43-.08a2.28,2.28,0,0,0,.63.8l-.32.25c.35-.17.7.15,1,.42l.39-.13.18.39a.64.64,0,0,1-.39-.1l.09.08c-.17.11-.41,0-.64-.11l.28-.1a2,2,0,0,0-.79-.26.21.21,0,0,1,.1.14.25.25,0,0,0-.17-.05s0,.05.14.13l-.49,0,.19,0-.36.47c.46.41,1.15.78,1.32,1.34-.35-.16-.58-.06-1-.09.45-.13-.17-.46-.05-.75-.06.15-.26.1-.33.06l.37.56c-.34,0-.26.1-.41.23.69-.07.44.42.65.64-.23,0-.47,0-.41-.31-.52.29.8.39.36.67,0-.06,0-.1-.08-.12.19.15,0,.52-.16.44v-.07c-.08.44.08,1.36.67,1.34a5.52,5.52,0,0,1-.82,0,16.21,16.21,0,0,0,2,.46c-.5,0-1.63.5-2,.18a.35.35,0,0,0,.11.46c.06-.09.67-.32.74-.23-.49.37-.26.24-.64.68.08-.13.86-.2.88,0a5.51,5.51,0,0,1-.84.18c.29.08.58.14.86.2-.16-.06-.63.17-.8.34.12-.09.11.38.23.47l.1-.25c.08.53,1.18.06,1.33.47-.16,0-.94.3-.91.58a15.55,15.55,0,0,1,2.31-.41l-.14.18a2.09,2.09,0,0,0,.35,0,5.42,5.42,0,0,1-2.47.47c-.06.26-.21.18,0,.43-.12.21-.37,0-.42-.05a6.29,6.29,0,0,0,.3.71c.35-.28.72.19,1-.09a6.85,6.85,0,0,1-.85-.34c.37-.26,1.3-.38,1.52,0-.06.21-.67.48-.78.58.16,0,.54.15.5.26l-.33,0c.1.34.75-.12.73.43.07.09-.05.7.13.49a7.16,7.16,0,0,1,1.39-2.12s.06.64.05.92c0,.45-.69.74-.74,1.11a.8.8,0,0,1,.29-.21c.06.15-.22.33.05.39.24-.4.47.25.27-.31.28,0,.21.2.49.28a1.88,1.88,0,0,1,.76-1,1.15,1.15,0,0,0,0,.35c.42.13.63.38,1.05.4,0,.12.23.27.14.46.06-.08.13-.24.26-.25.26.41-.3.06-.11.55,0-.27.36-.37.53-.55-.07-.41-.42-.07-.62.09a2.17,2.17,0,0,1,.69-1.45c.3-.16.17.36.21.28.61,0,.36-1,.89-.72.25.33.14.72.23,1-.24.19-.44-.16-.62-.12l.25.14c-.07.13-.24.25-.35.16.22.31,1.06-.1,1.6.07.05-.14.16-.3.06-.42l-.14.08c-.2-.25.18-.46,0-.55.14-.25.26-.62.57-.54l.17.39c-.05-.12-.25-.19-.29,0,.06-.2.58.42.54-.14L52.26,38c.12-.26.2-.75.47-.71-.24-.35,0,.07-.35-.33.33.52-.58.16-.16.69-.33-.49-.36-.14-.7-.54,0,.13.15.23-.06.22a.24.24,0,0,1,0,.12h0s0,0,0,0a.65.65,0,0,1,.15.18c0,.33-.32.4-.39.59-.13,0,0-.17-.08-.3l-.1.28c-.09-.3-.4-.44-.18-.67l-.24,0c-.16-.14-.35-.18-.45,0-.11-.06-.21.37-.15.12l-.34.23v-.08c-.33,0-.71.55-1.06,0a.31.31,0,0,1-.39,0v-.27c-.14.07-.29-.32-.4-.07.08-.71-.42-.31-.52-.52l-.18.3c-.1-.08-.25-.07-.48-.07l-.18.25c-.3.08-.18-.45-.36-.62.1-.06.12,0,.1.09.15-.34,0-.38-.25-.43s-.46-.12-.32-.38c-.13,0-.12-.09-.08-.17h0a0,0,0,0,0,0,0l.1-.16a.92.92,0,0,0-.11.15.48.48,0,0,0-.21-.17l.28-.17h0c.08-.13-.17,0-.38.13a.85.85,0,0,0-.23,0c.46-.26-.26-.18.24-.47-.29,0-.34-.39-.91-.31.07,0,.1-.06.12,0,0-.13.07-.26-.11-.33l.4-.13-.6-.14a.59.59,0,0,1,.7-.19c-.55-.28-.24-.26-.76-.51l.27,0c0-.11-.4-.26-.18-.35.47-.29,0-1.29.51-1.94-.8.09.38-.29-.24-.35.19,0,.3-.11.46,0-.16-.35.34-.48-.16-.76.19,0,.27.1.38.08s-.15-.13,0-.15.15.07.22.13c0-.35-.56-.45-1.1-.54.28-.15.25-.24-.08-.42.18,0,.38-.12.41.11,0-.12.36-.72-.06-.8.11,0,.05-.17,0-.21a1.7,1.7,0,0,0,.11-.58l-.08.06c-.5-.19-.08-.25-.1-.48h0c.46-.45-.14-.25.37-.69l-.32,0c-.69-.17.49-.38.27-.72l-.2.07c-.21-.2,1-.28,1.14-.43s.09.07.12.13c.49-.35-.41-.13-.45-.47.24,0,.56.18.64,0s-.62-.76-.14-1c-.18,0-.37.07-.47-.11s.77-.49.25-.79a.26.26,0,0,1,.15,0c-.12-.2-.14-.61-.42-.76,1.14,0-.35-1.18.67-1l0-.54.1,0c.13-.33-.09-.49-.32-.66.09-.06.17,0,.23,0,.29-.46.26-.52-.18-1l.34,0c-.17-.15.65-.63.35-1.19a.5.5,0,0,1,.14.08c-.29-.61,1.15-1.15,0-1.56l-.24-.42c-.17.45-.51-.16-.74,0,0-.2.45-.42.47-.18l-.07,0c.62.19.33-.55.76-.46.13-.92.64-1.76.82-2.62h-.51l.08-.29c.13-.06.4,0,.35.17.29-.07-.17-.4-.28-.43.28-.38.55.27.58.14v-.18l-.06,0c-.18-.18-.39-.23-.32-.48s.32,0,.35-.1.06,0,0-.09l.11-.37-.41.08c-.16-.2.08-.35-.39-.26.73-.13.5-1.37.74-1.49a.73.73,0,0,1-.11-.8c-.1.06-.54,0-.44-.22.88.25.47-.38,1.15-.47-.46.1,0-.72-.64-.55.11-.2.34,0,.58-.07-.26-.56.42-1,.41-1.68-.12,0-.31,0-.47-.13l.65-.21c0-.13-.66-.23-.21-.38-.11,0-.26,0-.29-.06.79-1.09,0-2.52,1.26-3.55-.26.13-.26,0-.25-.11-.06.07-.29-.06-.45-.07l.54-.43c-.43-.17.06-.55-.35-.68l0,.18c-.46-.3-1.16.1-1.8-.05.53.35-1,.49-.21,1-.15.07-.19-.11-.35-.09.26.15.29.28.13.48l-.06,0c0,.64-.37.86-.67,1.53h.32c-.07.15-.17.16-.26.22.45.26.1-.42.6-.17-.68.08-.2,1.06-1,1.07,0,.23.38,0,.34.23l-.21,0,.24.11c-.07.14-.33.18-.5.15,0,0,0-.11,0-.15-.27.15,0,.57-.11.62l.16-.2c.07.67-.32,1.4,0,2.08l.16,0c.19.52-.23.35-.2.89l0,0a.43.43,0,0,1,.14.42c-.15-.16-.38.19-.55,0,.21.56.19.29.69.73l-.26,0c.2.16.32.19.34.45-.18-.24-.41.1-.65-.19-.64.45.41.9-.43,1,.64.37.46-.4.59-.23.24-.08.47.29.37.45s-.93.13-1,.57c0,0,0,0,0-.1-.21.13.18.36-.14.51.39.19-.07.26.45.38l0-.42c.1.25.68.57.32.89a.84.84,0,0,1-.29-.27c-.18.08.06.23-.12.31-.52-.13,0-.5-.39-.82-.24.08.31.53-.25.3.7.31-.17.41.34.81L44.74,13c0,.06.18.18.16.26l-.39-.22c.31.3-.39.4-.24.66.08-.48.41,0,.67-.2.33.67-.89.19-.85.88,0-.1.25-.3.37-.14a.85.85,0,0,1-.42.31c0,.45.34,0,.5.21-.41.08.12.24.21.46l-.32-.06c-.3.46.65.25.32.65l-.42-.26.08.25-.36-.11c.23.3.14.37,0,.6.24,0,.59.13.56.35-.22.12-.3-.13-.31.19-.19-.11-.43-.23-.1-.32-.11,0-.19-.1-.3-.13s-.12.39-.14.51a.21.21,0,0,1,.1-.11l.37.53c-.13,0-.22,0-.31-.1,0,.1.16.19.16.33-.25-.08-.53-.12-.62-.33l.22.48c-.12,0-.36.17-.44.09-.2.21.4.68.14,1a.28.28,0,0,1,.12.14c-.11.29-.48.5-.18.91L42.8,20c.06.3.64-.17.74.33.09.35-.43,0-.58.14.21.2.64.57.21.8C43.09,21.11,43.18,21,43.16,20.94Zm-.4,3.45c0-.08-.24-.25,0-.26C43.08,24.27,42.89,24.3,42.76,24.39Zm0,5.39c-.11-.06,0-.14.09-.21A.19.19,0,0,1,42.71,29.78Zm7.77,8v0C50.33,37.73,50.38,37.77,50.48,37.82Zm.3.09a.14.14,0,0,0,0-.14c0,.09-.06.1-.13.1S50.71,38,50.78,37.91Zm-3-26-.1,0C47.66,11.83,47.74,11.89,47.83,11.94Z" transform="translate(-0.39 -0.27)"/><path class="cls-2" d="M42.33,29.12a.55.55,0,0,1,.18,0A.14.14,0,0,0,42.33,29.12Z" transform="translate(-0.39 -0.27)"/><path class="cls-2" d="M43.37,18.79h0l0,0Z" transform="translate(-0.39 -0.27)"/><path class="cls-2" d="M45.74,40.16a.42.42,0,0,1-.06-.23A.16.16,0,0,0,45.74,40.16Z" transform="translate(-0.39 -0.27)"/><path class="cls-2" d="M52.06,37l-.15.14c.08,0,.13,0,.19,0S52,37,52.06,37Z" transform="translate(-0.39 -0.27)"/><path class="cls-2" d="M54.3,38.34c0-.05.06,0,.07-.08l-.07-.13C54.19,38.18,54.16,38.33,54.3,38.34Z" transform="translate(-0.39 -0.27)"/><path class="cls-2" d="M52.55,38c.1.26.19.13.3,0h0C52.74,37.65,52.65,37.81,52.55,38Z" transform="translate(-0.39 -0.27)"/><path class="cls-2" d="M52.88,38A.16.16,0,0,1,53,38C53,37.8,52.93,37.94,52.88,38Z" transform="translate(-0.39 -0.27)"/><path class="cls-2" d="M51.08,37.65c.08.06,0-.35,0-.25C51.08,37,50.81,37.91,51.08,37.65Z" transform="translate(-0.39 -0.27)"/><polygon class="cls-2" points="52.55 38.54 52.4 38.23 52.41 38.52 52.55 38.54"/><path class="cls-2" d="M51.83,38.89l.23,0a.14.14,0,0,1,0-.13C52,38.82,51.8,38.79,51.83,38.89Z" transform="translate(-0.39 -0.27)"/><path class="cls-2" d="M52.09,38.79a.17.17,0,0,0,.15-.1A.39.39,0,0,0,52.09,38.79Z" transform="translate(-0.39 -0.27)"/><polygon class="cls-2" points="52.3 38.73 52.21 38.68 52.05 38.71 52.3 38.73"/><path class="cls-2" d="M49.52,39.22l-.24.11c0,.12,0,.19.14.14S49.56,39.33,49.52,39.22Z" transform="translate(-0.39 -0.27)"/><path class="cls-2" d="M50.35,40.08a.61.61,0,0,1-.14-.25l0,.42Z" transform="translate(-0.39 -0.27)"/><path class="cls-2" d="M49.61,40.25c0,.12-.37.36,0,.31C49.6,40.45,49.86,40.33,49.61,40.25Z" transform="translate(-0.39 -0.27)"/><polygon class="cls-2" points="45.55 38.66 45.6 38.7 45.96 38.1 45.55 38.66"/><path class="cls-2" d="M42.35,37c0,.4.42-.1.37.28.18,0,0-.31.2-.29C42.68,36.91,42.72,36.77,42.35,37Z" transform="translate(-0.39 -0.27)"/><path class="cls-2" d="M42.92,37l.14,0A.34.34,0,0,0,42.92,37Z" transform="translate(-0.39 -0.27)"/><polygon class="cls-2" points="49.76 0.59 49.94 0.43 49.69 0.51 49.76 0.59"/><path class="cls-2" d="M49.71.41l.45,0L49.78.27S49.82.4,49.71.41Z" transform="translate(-0.39 -0.27)"/><path class="cls-2" d="M41.79,24.74l.11,0c.12,0,.13-.05.16-.13Z" transform="translate(-0.39 -0.27)"/><polygon class="cls-2" points="42.17 22.05 42.15 22.1 42.56 22.09 42.17 22.05"/><path class="cls-2" d="M42.43,20.16c0,.08,0,.19,0,.28C42.4,20.24,42.92,20.22,42.43,20.16Z" transform="translate(-0.39 -0.27)"/><path class="cls-2" d="M39.34,31.58c-.07,0,.1.24.12.29C39.53,31.75,39.3,31.52,39.34,31.58Z" transform="translate(-0.39 -0.27)"/><polygon class="cls-2" points="39.6 30.13 39.64 30.24 39.63 29.9 39.6 30.13"/><path class="cls-2" d="M40.92,29.8c-.35-.35-.29.28-.55.25L40.28,30l.14.38C40.59,30.17,40.71,29.78,40.92,29.8Z" transform="translate(-0.39 -0.27)"/><path class="cls-2" d="M42,30.35c-.13-.13,0-.2-.14,0l0,0A.29.29,0,0,1,42,30.35Z" transform="translate(-0.39 -0.27)"/><path class="cls-2" d="M41.89,30.41c-.09.07.16.09,0,0Z" transform="translate(-0.39 -0.27)"/><path class="cls-2" d="M42.29,30l0,.22c.09.08.22,0,.22.12C42.55,30.19,42.46,30.12,42.29,30Z" transform="translate(-0.39 -0.27)"/><path class="cls-2" d="M42.21,29.64l0,.1S42.25,29.78,42.21,29.64Z" transform="translate(-0.39 -0.27)"/><path class="cls-2" d="M42.13,30l0-.22c-.06,0-.15-.18,0,.09C42.08,29.71,42.13,29.84,42.13,30Z" transform="translate(-0.39 -0.27)"/><path class="cls-2" d="M42,30c-.14-.05-.27,0-.23-.26C41.57,29.91,41.8,30.18,42,30Z" transform="translate(-0.39 -0.27)"/><path class="cls-2" d="M40.69,29.35l-.17-.06v.19C40.52,29.39,40.78,29.47,40.69,29.35Z" transform="translate(-0.39 -0.27)"/><path class="cls-2" d="M43.23,29.68a3.71,3.71,0,0,0-.28-.3l0,.16C43,29.57,43.14,29.56,43.23,29.68Z" transform="translate(-0.39 -0.27)"/><path class="cls-2" d="M43,29.38l0-.24C42.85,29.2,42.88,29.29,43,29.38Z" transform="translate(-0.39 -0.27)"/><polygon class="cls-2" points="41.54 28.91 41.52 29.37 41.58 28.87 41.54 28.91"/><polygon class="cls-2" points="43.39 29.04 43.45 29.3 43.38 28.9 43.39 29.04"/><path class="cls-2" d="M44.12,29c.06.21.28.22.28.36a.69.69,0,0,0,.05-.47C44.42,29,44.33,29.08,44.12,29Z" transform="translate(-0.39 -0.27)"/><path class="cls-2" d="M44.45,28.64a1.2,1.2,0,0,0,0,.27A.6.6,0,0,0,44.45,28.64Z" transform="translate(-0.39 -0.27)"/><path class="cls-2" d="M43.26,29c.05,0,.16.16.28.16l-.22-.2Z" transform="translate(-0.39 -0.27)"/><path class="cls-2" d="M43.31,29h0l.13-.07Z" transform="translate(-0.39 -0.27)"/><path class="cls-2" d="M43.25,29h0S43.23,29,43.25,29Z" transform="translate(-0.39 -0.27)"/><path class="cls-2" d="M42.45,29.14c0-.19.07-.45-.24-.54C42.26,28.8,42.44,28.86,42.45,29.14Z" transform="translate(-0.39 -0.27)"/><path class="cls-2" d="M43,28.77l-.19.05c0,.06.14.13.14.23Z" transform="translate(-0.39 -0.27)"/><polygon class="cls-2" points="42.6 28.37 42.58 28.5 42.65 28.48 42.6 28.37"/><path class="cls-2" d="M44,28.6a.34.34,0,0,1,.12-.28.6.6,0,0,0-.3.11C43.89,28.51,44,28.68,44,28.6Z" transform="translate(-0.39 -0.27)"/><path class="cls-2" d="M43.67,28.76v0S43.64,28.72,43.67,28.76Z" transform="translate(-0.39 -0.27)"/><polygon class="cls-2" points="44.54 27.48 44.5 27.45 44.52 27.49 44.54 27.48"/><path class="cls-2" d="M43.8,28.4c-.1,0-.09.08-.08.18a.37.37,0,0,1,.13-.15S43.81,28.37,43.8,28.4Z" transform="translate(-0.39 -0.27)"/><path class="cls-2" d="M44.59,28.37a.8.8,0,0,0-.21-.05C44.47,28.37,44.62,28.44,44.59,28.37Z" transform="translate(-0.39 -0.27)"/><path class="cls-2" d="M43.74,28.79h0C43.8,28.84,43.77,28.82,43.74,28.79Z" transform="translate(-0.39 -0.27)"/><path class="cls-2" d="M43.74,28.79a.78.78,0,0,0,0-.21.75.75,0,0,0,0,.16Z" transform="translate(-0.39 -0.27)"/><path class="cls-2" d="M44,26.08c.15.22.14.54-.17.42,0,.26.6.91,1,1.21a.43.43,0,0,1-.08-.42c-.14-.08-.53,0-.55-.32s.21,0,.39,0c-.28-.21-.06-.57-.4-.93l-.06.26C44.14,26.24,44.13,26.1,44,26.08Z" transform="translate(-0.39 -0.27)"/><path class="cls-2" d="M44.6,27.9l0,.07a.94.94,0,0,1,.42.14.53.53,0,0,0-.06-.35L44.6,28Z" transform="translate(-0.39 -0.27)"/><path class="cls-2" d="M44.29,28.17c-.13-.27-.06-.48-.34-.67-.16.14,0,.28,0,.46.24-.26,0,.2.31.18a.46.46,0,0,1-.11.18.89.89,0,0,1,.23,0h0s0,0,0,0h0a.93.93,0,0,1-.05-.1c.11,0,.05,0,.05.1l0,0h0l.2-.34C44.47,28,44.4,28,44.29,28.17Z" transform="translate(-0.39 -0.27)"/><path class="cls-2" d="M42,28l0,.05S42,28,42,28Z" transform="translate(-0.39 -0.27)"/><path class="cls-2" d="M42.22,28c0,.05.06.16,0,.18s-.08-.12-.14-.2c0,.1,0,.27.19.31v0a1,1,0,0,1,.53.25A3.21,3.21,0,0,0,42.22,28Z" transform="translate(-0.39 -0.27)"/><path class="cls-2" d="M43.21,28.05l.16-.29-.27-.12.1.12C43,27.81,43.16,27.94,43.21,28.05Z" transform="translate(-0.39 -0.27)"/><polygon class="cls-2" points="44.66 27.57 44.81 27.85 44.68 27.39 44.66 27.57"/><polygon class="cls-2" points="44.94 27.31 45.09 27.53 45.08 27.34 44.94 27.31"/><path class="cls-2" d="M42.37,17.83l-.06.09A.24.24,0,0,0,42.37,17.83Z" transform="translate(-0.39 -0.27)"/><path class="cls-2" d="M42.93,17.79v-.13C42.91,17.73,42.91,17.79,42.93,17.79Z" transform="translate(-0.39 -0.27)"/><path class="cls-2" d="M52.56,20.22c.35-.1.87-.24.54-.27h-.34A.33.33,0,0,1,52.56,20.22Z" transform="translate(-0.39 -0.27)"/><path class="cls-2" d="M47.74,16.51v.09l.14-.25Z" transform="translate(-0.39 -0.27)"/><path class="cls-2" d="M47.4,17.69l-.11-.22A.65.65,0,0,0,47.4,17.69Z" transform="translate(-0.39 -0.27)"/><path class="cls-2" d="M39.46,18.76v.31C39.59,19,39.49,18.9,39.46,18.76Z" transform="translate(-0.39 -0.27)"/><path class="cls-2" d="M48.31,25a.51.51,0,0,0,.32-.06C48.42,24.86,48.17,24.74,48.31,25Z" transform="translate(-0.39 -0.27)"/><path class="cls-2" d="M42.25,14.69a.23.23,0,0,0-.06.19A.2.2,0,0,0,42.25,14.69Z" transform="translate(-0.39 -0.27)"/><path class="cls-2" d="M48.87,24.67h-.09a.39.39,0,0,1-.15.23C48.79,24.91,48.93,24.89,48.87,24.67Z" transform="translate(-0.39 -0.27)"/><path class="cls-2" d="M29.64,24.13h0S29.63,24.15,29.64,24.13Z" transform="translate(-0.39 -0.27)"/><path class="cls-2" d="M25.05,24.41a.94.94,0,0,1,.09-.12S25.08,24.33,25.05,24.41Z" transform="translate(-0.39 -0.27)"/><path class="cls-2" d="M46.64,26.72c0,.06,0,0,0,0Z" transform="translate(-0.39 -0.27)"/><path class="cls-2" d="M45.59,26.06a.27.27,0,0,0-.06-.14A.3.3,0,0,1,45.59,26.06Z" transform="translate(-0.39 -0.27)"/><path class="cls-2" d="M48.15,22.79h0C48.1,22.76,48.11,22.76,48.15,22.79Z" transform="translate(-0.39 -0.27)"/><path class="cls-2" d="M46.46,26.69h.14A.64.64,0,0,0,46.46,26.69Z" transform="translate(-0.39 -0.27)"/><path class="cls-2" d="M46.56,26.79l-.08,0C46.51,26.86,46.53,26.88,46.56,26.79Z" transform="translate(-0.39 -0.27)"/><path class="cls-2" d="M46.72,26.63a.23.23,0,0,1-.12.06l0,0Z" transform="translate(-0.39 -0.27)"/><path class="cls-2" d="M34.22,19.88h0C34.19,20,34.21,20,34.22,19.88Z" transform="translate(-0.39 -0.27)"/><path class="cls-2" d="M49.68,18.65h0Z" transform="translate(-0.39 -0.27)"/><path class="cls-2" d="M49.3,18.67c.52-.16.5-.1.41,0,.39-.14.77-.28,1.14-.43C50.32,18.34,49.8,18.5,49.3,18.67Z" transform="translate(-0.39 -0.27)"/><path class="cls-2" d="M41.07,18.13l.22.23c-.13.47-.3.35-.07.68-.15-.92.65-.22.53-1.13l.15.18s0,.05-.07,0c.29.41.07-.68.4-.6.11.06.2.19.14.3l.21-.25c.07,0,.07.17,0,.16l.35-.11v0a3.35,3.35,0,0,1,.19-.49c.1.13,0,.11,0,.22l.19-.24c.09.24-.06.48-.19.45.25.92.15-.24.57.28l-.17.13c.14.52.27.31.48.64-.05-.18-.44-.81-.24-1,.07.07.15.09.26-.09,0,.33.12.24.26.23v.43c.15-.13.13-.35.22-.54.17,0,.2.37.24.66.25.08-.18-.55.14-.62.22.18.38,0,.67-.24.15.17-.05.27,0,.4l.17-.34s0,.12,0,.17c.13-.12,0-.43.25-.53.1-.47.3.73.6.23,0,.13-.07.26-.07.43a2.48,2.48,0,0,0,.64-.65l.17.33c-.1-.36.18-.69.45-1,0-.17-.06-.32-.08-.39L48,16a.67.67,0,0,1-.14.39l.08-.09c.08.18,0,.41-.17.63l0-.29a2.73,2.73,0,0,0-.3.77.26.26,0,0,1,.12-.09.44.44,0,0,0-.06.17s.05,0,.12-.14l0,.49.06-.19c.1.13.2.25.29.39.4-.39.76-1.06,1.33-1.07a3.35,3.35,0,0,0-.54.88c.12-.43-.29.1-.39,0,.07.07,0,.25-.06.32a2.33,2.33,0,0,1,.38-.31c-.17.31-.07.25-.1.39.32-.61.43-.34.68-.46-.16.19-.35.37-.41.28-.26.46.73-.58.57-.16,0,0,0-.05-.14,0,.24-.13.3.08.07.2h0c.11.14.51.26,1.31,0l-1.07.42A12.1,12.1,0,0,1,51,18.1a5.84,5.84,0,0,1,.72-.1,4.7,4.7,0,0,1,.54,0,3.17,3.17,0,0,0-.46.12l-.77.23a6.58,6.58,0,0,1-1.31.28c-.07.07-.17.13.07.16a5.65,5.65,0,0,1,1.09-.28,10.92,10.92,0,0,1-1.15.44c.17-.06,1.23-.16,1.14,0S49.8,19,49.7,19a6.15,6.15,0,0,1,.9.11,7,7,0,0,0-1.14.06c.2,0-.09.11,0,.14l.26,0c-.24.13,1.12.33.85.62a3.51,3.51,0,0,0-1.15-.27,5,5,0,0,1,1,.55c.38.27.66.63.64.9L50.79,21a2.94,2.94,0,0,1,0,.42,6.49,6.49,0,0,0-.72-1,3.9,3.9,0,0,0-.84-.74c-.22,0-.27-.09-.31,0-.21-.07-.27-.17-.27-.19l-.21,0c.4.23.31.35.59.61a1.15,1.15,0,0,0-.23-.47c.43.19,1,.8.73,1-.19-.05-.58-.57-.7-.67.09.14,0,.44-.09.39l-.09-.27c-.25,0,.26.63-.21.51-.08.05-.6-.22-.4,0A10.26,10.26,0,0,1,50,22.26a3.36,3.36,0,0,1-.92-.12c-.39-.18-.58-.81-.92-1a.66.66,0,0,1,.17.3c-.13,0-.26-.29-.34-.12.32.34-.27.24.23.33,0,.22-.19.07-.32.23A1.71,1.71,0,0,1,48.43,23a.81.81,0,0,0-.28-.2c-.29.23-.57.22-.83.45-.1-.06-.31,0-.4-.24,0,.09.1.24,0,.32-.42-.16.13-.21-.31-.45.17.2.06.45.06.68.32.28.31-.18.3-.4a1.82,1.82,0,0,1,.52,1.48c-.12.3-.34-.19-.33-.09-.47.28.32,1.07-.3,1.05-.38-.16-.48-.55-.69-.72.09-.26.43-.06.54-.18h-.26c0-.14,0-.31.16-.29-.32-.14-.73.55-1.24.58,0,.14,0,.32.14.4l.07-.13c.28.15.07.48.29.48,0,.27,0,.65-.27.68l-.3-.3c.08.09.29.09.26-.05,0,.21-.65-.2-.4.3l.32.12c0,.27.08.77-.18.8.33.26,0-.07.44.21-.48-.38.47-.34-.1-.7.48.34.38,0,.85.25-.09-.11-.23-.16,0-.23l0-.12h0s0,0,0,0a.45.45,0,0,1-.21-.1c-.12-.3.12-.49.09-.68.13,0,.07.15.21.23l0-.29c.21.23.56.19.47.51l.19-.15c.22,0,.42,0,.43-.21s0-.45.07-.21l.16-.39.06.05c.31-.22.22-.89.92-.78a.47.47,0,0,1,.28-.39l.21.16c0-.18.54-.17.39-.41.64.37.68-.47,1-.6l-.24-.25a1,1,0,0,0,.26-.61l-.24-.19c0-.33.51-.26.73-.56.07.1,0,.16-.11.15.38.1.55-.33.59-.63s.07-.6.48-.73c0-.14.08-.2.19-.26v0l0-.05.25-.11a1.23,1.23,0,0,0-.24.09.78.78,0,0,0,.06-.36h.38v0c.2-.12-.11-.13-.4-.1a.46.46,0,0,0-.13-.18c.62,0,0-.31.67-.42-.22-.09,0-.58-.59-.56.09,0,.13-.05.12,0,.11-.13.2-.27,0-.35l.42-.14a4.43,4.43,0,0,0-.58-.16c.2-.23.29-.36.68-.27l-.51-.23a1.09,1.09,0,0,0-.54-.09l.27-.1c-.1-.09-.62,0-.47-.17s-.1-.48-.53-.68A4.47,4.47,0,0,1,50,15.68c-.23.76-.23-.47-.54.07,0-.19-.06-.33.15-.43a1,1,0,0,1-.55-.19c-.1-.06-.21-.08-.39.14,0-.2.14-.25.14-.37s-.15.13-.16,0,.09-.14.17-.2c-.36-.07-.53.5-.68,1-.11-.29-.21-.27-.4,0,0-.19-.08-.39.14-.41-.11-.06-.68-.4-.76,0,0-.12-.16-.06-.2,0a1.39,1.39,0,0,0-.53-.1l.06.08c-.16.51-.23.1-.44.14v0c-.44-.43-.21.15-.65-.31v.33c-.07.7-.39-.43-.67-.17l.09.19c-.15.23-.4-1-.57-1.05s.06-.1.1-.14c-.41-.41-.05.43-.34.53-.06-.23.06-.59-.15-.63-.12-.19-.56.78-.86.35.08.18.15.35,0,.49s-.63-.61-.76,0a.25.25,0,0,1-.06-.13c-.14.15-.49.3-.54.61-.32-1.1-.87.7-1-.32l-.47.15v-.1c-.33,0-.38.27-.43.54-.08,0,0-.16-.06-.22-.5-.09-.54,0-.76.57l-.13-.32c0,.22-.8-.32-1.1.21a.42.42,0,0,1,0-.16c-.34.52-1.48-.46-1.2.75l-.19.41c.42-.08.15.52.38.64-.12.13-.53-.18-.37-.31l0,0c-.18-.62-.56,0-.73-.41-.75.38-1.64.42-2.35.79l.32.39-.25.11c-.12-.06-.28-.29-.1-.37-.23-.19-.17.37-.12.47-.43,0-.16-.58-.27-.53l-.12.11.06,0c0,.24.09.43-.12.53s-.22-.22-.28-.21-.05,0-.09,0l-.32.14.33.26c0,.25-.29.15.08.45-.56-.46-1.2.48-1.43.39a.63.63,0,0,1-.42.6c.1,0,.39.36.18.45-.47-.79-.56-.08-1.1-.5.39.25-.45.48.14.81-.2.06-.22-.26-.47-.34-.13.55-.91.43-1.26.89.07.09.26.17.29.38l-.62-.26c0,.12.38.59,0,.41.09.05.22.14.19.22C26.59,22.5,26.53,24,25,24.06c.28.05.22.14.15.23.09,0,.21.2.34.31l-.64,0c.28.37-.31.38,0,.71l0-.16c.25.48,1,.56,1.47,1-.28-.55,1,.19.62-.62.15,0,.11.19.25.27-.15-.25-.12-.37.11-.42l0,.07c.33-.42.68-.4,1.24-.66l-.26-.21c.13-.06.22,0,.31,0-.22-.46-.28.22-.55-.26.57.36.67-.61,1.26-.13.15-.13-.29-.24-.14-.37l.17.12-.14-.23c.13-.05.34.1.46.22,0,0,0,.1-.05.13.28.07.3-.37.39-.34l-.22,0c.28-.49,1-.69,1.1-1.33l-.12-.09c.14-.47.35-.06.62-.43v0a.35.35,0,0,1,.13-.36c0,.21.37.16.37.41.17-.49,0-.32-.06-.94l.2.17c-.05-.25-.11-.35,0-.53,0,.28.33.24.33.59.68.21.26-.84.87-.27-.2-.71-.54-.11-.52-.3-.21-.14-.14-.54,0-.56s.69.63,1,.43c0,0,0,.06,0,.08.2.08.1-.35.39-.18-.13-.41.2-.09-.05-.57l-.23.28c.09-.22-.06-.86.37-.75a1,1,0,0,1,0,.38c.16.1.1-.18.27-.08.23.49-.3.3-.27.76.2.15.14-.53.34,0-.24-.72.35-.09.29-.7l.14.29c0-.07,0-.24.07-.26l.09.43c0-.41.47.1.55-.16-.34.19-.26-.3-.51-.44.24-.61.63.62,1,.26,0,.07-.33-.06-.3-.24a.78.78,0,0,1,.43.19c.29-.21-.19-.28-.14-.52.28.31.09-.22.19-.4l.13.3c.46,0-.17-.67.27-.59l0,.48.13-.18.11.36c.08-.34.17-.3.39-.28-.13-.19-.19-.56,0-.64.19.14,0,.32.28.18,0,.22.05.48-.16.24,0,.1,0,.21,0,.31.2.17.32-.07.41-.1a.14.14,0,0,1-.12,0l.18-.56a.34.34,0,0,1,.08.31c.06,0,.06-.21.15-.27.06.26.16.52.06.68l.23-.39c.06.1.27.25.26.36.22.08.28-.64.58-.51a.2.2,0,0,1,.06-.16c.24,0,.52.25.71-.17l.26.43c.19-.16-.35-.54,0-.8s.19.37.31.48c.07-.26.2-.78.51-.45C41.21,18.14,41.13,18.08,41.07,18.13Zm2.68-.54c0,.08-.15.29-.19.1C43.6,17.31,43.65,17.49,43.75,17.59ZM48,17.22c-.07.09-.12,0-.16-.11S48,17.12,48,17.22Zm-.85,8.71h0C47.34,25.93,47.27,25.92,47.16,25.93Zm-.3.07a.14.14,0,0,0,.07.12c0-.08,0-.12.08-.15S46.87,25.89,46.86,26ZM32.37,18.4l.09.05C32.41,18.59,32.39,18.5,32.37,18.4Z" transform="translate(-0.39 -0.27)"/><path class="cls-2" d="M47.44,17.55a.55.55,0,0,1,0-.18A.19.19,0,0,0,47.44,17.55Z" transform="translate(-0.39 -0.27)"/><polygon class="cls-2" points="39.07 18.43 39.06 18.43 39.07 18.49 39.07 18.43"/><path class="cls-2" d="M47.94,21.14a.31.31,0,0,1,.19,0A.13.13,0,0,0,47.94,21.14Z" transform="translate(-0.39 -0.27)"/><path class="cls-2" d="M46.06,27.37l.09-.18c-.06.07-.13,0-.19,0S46.1,27.33,46.06,27.37Z" transform="translate(-0.39 -0.27)"/><path class="cls-2" d="M43.63,26.67s-.05,0,0,.08l.1.12C43.77,26.8,43.75,26.65,43.63,26.67Z" transform="translate(-0.39 -0.27)"/><path class="cls-2" d="M45.26,26.61c-.18-.21-.21-.07-.27,0h0C45.21,27,45.24,26.79,45.26,26.61Z" transform="translate(-0.39 -0.27)"/><path class="cls-2" d="M45,26.68a.18.18,0,0,1-.08.07C45,26.88,44.94,26.75,45,26.68Z" transform="translate(-0.39 -0.27)"/><path class="cls-2" d="M46.7,26.37c-.09,0,.2.3.1.23C47,26.91,46.83,26,46.7,26.37Z" transform="translate(-0.39 -0.27)"/><polygon class="cls-2" points="44.23 25.68 44.48 25.92 44.36 25.66 44.23 25.68"/><path class="cls-2" d="M45.52,25.56l-.21,0a.16.16,0,0,1,0,.12C45.45,25.66,45.59,25.63,45.52,25.56Z" transform="translate(-0.39 -0.27)"/><path class="cls-2" d="M45.35,25.72c-.06,0-.1.08-.09.15A.49.49,0,0,0,45.35,25.72Z" transform="translate(-0.39 -0.27)"/><polygon class="cls-2" points="44.37 25.44 44.46 25.46 44.58 25.39 44.37 25.44"/><path class="cls-2" d="M47.14,24.25l.09-.21c-.06-.1-.15-.11-.18,0S47,24.19,47.14,24.25Z" transform="translate(-0.39 -0.27)"/><path class="cls-2" d="M46.05,24a.87.87,0,0,1,.24.14L46,23.79Z" transform="translate(-0.39 -0.27)"/><path class="cls-2" d="M46.43,23.5c-.06-.1,0-.44-.18-.25C46.31,23.35,46.23,23.56,46.43,23.5Z" transform="translate(-0.39 -0.27)"/><polygon class="cls-2" points="48.62 21.42 48.58 21.46 49.1 21.93 48.62 21.42"/><path class="cls-2" d="M48.82,19.34c-.22,0,.47.11.19.13.16.06.23,0,.37,0C49.23,19.4,49.36,19.4,48.82,19.34Z" transform="translate(-0.39 -0.27)"/><path class="cls-2" d="M49.38,19.5l.09.06Z" transform="translate(-0.39 -0.27)"/><polygon class="cls-2" points="23.98 24.33 23.76 24.36 24 24.44 23.98 24.33"/><path class="cls-2" d="M24.54,25.18l-.36-.26.23.34S24.44,25.14,24.54,25.18Z" transform="translate(-0.39 -0.27)"/><path class="cls-2" d="M44.17,18.47v-.1c0-.12-.06-.13-.13-.14Z" transform="translate(-0.39 -0.27)"/><polygon class="cls-2" points="41.85 18.02 41.89 18.02 41.77 17.63 41.85 18.02"/><path class="cls-2" d="M40.76,19.07c.06,0,.12-.1.19-.1C40.82,19.07,40.63,18.59,40.76,19.07Z" transform="translate(-0.39 -0.27)"/><path class="cls-2" d="M37.46,52c0,.06.25.1.3.12S37.39,52,37.46,52Z" transform="translate(-0.39 -0.27)"/><polygon class="cls-2" points="36.66 50.49 36.77 50.53 36.52 50.31 36.66 50.49"/><path class="cls-2" d="M37.27,49.75c-.5,0,0,.38-.21.52H37l.36.16C37.3,50.21,37.1,49.88,37.27,49.75Z" transform="translate(-0.39 -0.27)"/><path class="cls-2" d="M38.41,49.43c-.19,0-.14-.15-.09.11h.06A.14.14,0,0,1,38.41,49.43Z" transform="translate(-0.39 -0.27)"/><path class="cls-2" d="M38.38,49.53c0,.11.17,0,0,0Z" transform="translate(-0.39 -0.27)"/><path class="cls-2" d="M38.37,49l.14.17c.11,0,.16-.13.23-.06C38.68,49,38.57,49,38.37,49Z" transform="translate(-0.39 -0.27)"/><path class="cls-2" d="M38.05,48.81l.05.09S38.17,48.88,38.05,48.81Z" transform="translate(-0.39 -0.27)"/><path class="cls-2" d="M38.22,49.08l-.12-.18c-.08,0-.23,0,0,.08C38,48.94,38.13,49,38.22,49.08Z" transform="translate(-0.39 -0.27)"/><path class="cls-2" d="M38.13,49.15c-.12.06-.21.15-.34,0C37.8,49.41,38.14,49.43,38.13,49.15Z" transform="translate(-0.39 -0.27)"/><path class="cls-2" d="M36.78,49.6l-.16.07.14.13C36.69,49.73,36.93,49.62,36.78,49.6Z" transform="translate(-0.39 -0.27)"/><path class="cls-2" d="M38.8,48.2c-.1,0-.28,0-.42,0l.1.13A.42.42,0,0,1,38.8,48.2Z" transform="translate(-0.39 -0.27)"/><path class="cls-2" d="M38.38,48.17,38.24,48C38.19,48.12,38.27,48.16,38.38,48.17Z" transform="translate(-0.39 -0.27)"/><polygon class="cls-2" points="37.13 48.41 37.45 48.74 37.14 48.36 37.13 48.41"/><polygon class="cls-2" points="38.54 47.34 38.75 47.48 38.43 47.25 38.54 47.34"/><path class="cls-2" d="M39,47.21c.18.11.35,0,.45.07,0-.11-.16-.23-.29-.35C39.2,47,39.15,47.12,39,47.21Z" transform="translate(-0.39 -0.27)"/><path class="cls-2" d="M38.94,46.75a1.12,1.12,0,0,0,.19.18A.84.84,0,0,0,38.94,46.75Z" transform="translate(-0.39 -0.27)"/><path class="cls-2" d="M38.35,47.73a.52.52,0,0,0,.31-.06h-.3Z" transform="translate(-0.39 -0.27)"/><path class="cls-2" d="M38.35,47.67h0l0-.13Z" transform="translate(-0.39 -0.27)"/><path class="cls-2" d="M38.34,47.74h0S38.31,47.73,38.34,47.74Z" transform="translate(-0.39 -0.27)"/><path class="cls-2" d="M37.87,48.33c-.14-.13-.28-.35-.56-.22C37.5,48.22,37.66,48.14,37.87,48.33Z" transform="translate(-0.39 -0.27)"/><path class="cls-2" d="M38,47.75l-.1.15a.48.48,0,0,1,.26.06Z" transform="translate(-0.39 -0.27)"/><polygon class="cls-2" points="37.5 47.38 37.58 47.48 37.61 47.42 37.5 47.38"/><path class="cls-2" d="M38.61,47a.29.29,0,0,1-.1-.27.54.54,0,0,0-.15.26C38.45,47,38.6,47.08,38.61,47Z" transform="translate(-0.39 -0.27)"/><path class="cls-2" d="M38.46,47.31v0S38.41,47.3,38.46,47.31Z" transform="translate(-0.39 -0.27)"/><polygon class="cls-2" points="38.3 45.58 38.24 45.58 38.29 45.59 38.3 45.58"/><path class="cls-2" d="M38.31,47c-.07.06,0,.11.07.17a.37.37,0,0,1,0-.18S38.3,47,38.31,47Z" transform="translate(-0.39 -0.27)"/><path class="cls-2" d="M38.86,46.48l-.19.09C38.77,46.56,38.93,46.51,38.86,46.48Z" transform="translate(-0.39 -0.27)"/><path class="cls-2" d="M38.53,47.28h0C38.61,47.28,38.58,47.28,38.53,47.28Z" transform="translate(-0.39 -0.27)"/><path class="cls-2" d="M38.53,47.28a.67.67,0,0,0-.15-.13.27.27,0,0,0,.07.14Z" transform="translate(-0.39 -0.27)"/><path class="cls-2" d="M36.91,45.21c.26.07.47.3.15.4a2.91,2.91,0,0,0,1.57.24.47.47,0,0,1-.34-.24c-.16,0-.41.29-.62.1s.13-.16.29-.23c-.35,0-.42-.37-.92-.43l.13.23C37.1,45.26,37,45.17,36.91,45.21Z" transform="translate(-0.39 -0.27)"/><path class="cls-2" d="M38.54,46.15l0,.08c.06-.07.18-.1.41-.16a.55.55,0,0,0-.29-.21l-.1.32Z" transform="translate(-0.39 -0.27)"/><path class="cls-2" d="M38.5,46.53c-.28-.11-.37-.3-.7-.27,0,.2.22.19.32.33,0-.33.14.13.35-.07a.46.46,0,0,1,0,.19,1.07,1.07,0,0,1,.16-.14h0s-.06,0,0,0h0l-.11,0c.08-.08.08,0,.11,0l0,0h0l-.09-.35C38.51,46.29,38.5,46.37,38.5,46.53Z" transform="translate(-0.39 -0.27)"/><path class="cls-2" d="M36.73,47.81h.07S36.75,47.78,36.73,47.81Z" transform="translate(-0.39 -0.27)"/><path class="cls-2" d="M36.93,47.72s.15.07.1.14-.14,0-.23,0c.07.06.17.2.34.09l0,0a1,1,0,0,1,.55-.17A3.56,3.56,0,0,0,36.93,47.72Z" transform="translate(-0.39 -0.27)"/><path class="cls-2" d="M37.64,47.1l-.08-.29-.28.08.15,0C37.34,47.05,37.53,47.06,37.64,47.1Z" transform="translate(-0.39 -0.27)"/><polygon class="cls-2" points="38.44 45.58 38.74 45.68 38.34 45.44 38.44 45.58"/><polygon class="cls-2" points="38.48 45.23 38.74 45.3 38.6 45.17 38.48 45.23"/><path class="cls-2" d="M34.72,27.56h-.11A.21.21,0,0,0,34.72,27.56Z" transform="translate(-0.39 -0.27)"/><path class="cls-2" d="M35.06,28l.11-.08C35.09,27.92,35.05,28,35.06,28Z" transform="translate(-0.39 -0.27)"/><path class="cls-2" d="M40.51,37c.26-.09.67-.17.37-.2h-.3A.15.15,0,0,1,40.51,37Z" transform="translate(-0.39 -0.27)"/><path class="cls-2" d="M38.57,30.92,38.5,31h.29Z" transform="translate(-0.39 -0.27)"/><path class="cls-2" d="M37.38,31.19l.14-.18A.86.86,0,0,0,37.38,31.19Z" transform="translate(-0.39 -0.27)"/><path class="cls-2" d="M32.36,25.58l-.28.15C32.18,25.83,32.25,25.68,32.36,25.58Z" transform="translate(-0.39 -0.27)"/><path class="cls-2" d="M39.49,42a.43.43,0,0,0,.22-.2C39.52,41.85,39.26,41.89,39.49,42Z" transform="translate(-0.39 -0.27)"/><path class="cls-2" d="M37.19,25.62a.24.24,0,0,0-.18.06A.2.2,0,0,0,37.19,25.62Z" transform="translate(-0.39 -0.27)"/><path class="cls-2" d="M39.77,41.49l-.08,0a.28.28,0,0,1,0,.25C39.86,41.71,40,41.62,39.77,41.49Z" transform="translate(-0.39 -0.27)"/><path class="cls-2" d="M24.23,18.38v0S24.22,18.38,24.23,18.38Z" transform="translate(-0.39 -0.27)"/><path class="cls-2" d="M22.68,14.24a.25.25,0,0,1,.14,0S22.77,14.23,22.68,14.24Z" transform="translate(-0.39 -0.27)"/><path class="cls-2" d="M39.28,44.15c0,.07,0,0,0,0Z" transform="translate(-0.39 -0.27)"/><path class="cls-2" d="M38.06,44.26a.23.23,0,0,0-.13,0Z" transform="translate(-0.39 -0.27)"/><path class="cls-2" d="M38.12,40.39h0C38.06,40.39,38.07,40.39,38.12,40.39Z" transform="translate(-0.39 -0.27)"/><path class="cls-2" d="M39.13,44.23a.27.27,0,0,0,.1-.08Z" transform="translate(-0.39 -0.27)"/><path class="cls-2" d="M39.27,44.24l0,.06S39.31,44.32,39.27,44.24Z" transform="translate(-0.39 -0.27)"/><path class="cls-2" d="M39.29,44a.2.2,0,0,1-.06.11h.05Z" transform="translate(-0.39 -0.27)"/><path class="cls-2" d="M29.36,21.25v0C29.23,21.26,29.26,21.27,29.36,21.25Z" transform="translate(-0.39 -0.27)"/><polygon class="cls-2" points="37.24 34.47 37.26 34.48 37.27 34.47 37.24 34.47"/><path class="cls-2" d="M37.43,34.49c.36.12.31.18.23.25l.86,0Z" transform="translate(-0.39 -0.27)"/><path class="cls-2" d="M33.74,26.67l-.06.31c-.47.15-.47-.07-.62.31.69-.62.56.44,1.24-.18l-.06.22s-.06,0-.07,0c-.17.47.6-.33.71,0,0,.13,0,.27-.16.29l.32,0c0,.06-.1.15-.13.09l.28.21h0a2.86,2.86,0,0,1,.49-.14c0,.15-.11,0-.18.12h.3c-.14.22-.42.25-.47.13-.6.73.28,0,.09.6l-.2-.06c-.34.41-.1.39-.25.74.11-.14.41-.81.72-.8,0,.09,0,.17.21.14-.27.2-.14.23-.05.32l-.36.25c.18,0,.36-.1.56-.15.06.15-.21.36-.42.55.07.23.35-.44.58-.25,0,.26.19.27.53.35-.06.19-.24.11-.33.21l.37-.06s-.09.08-.14.1c.16,0,.38-.2.57-.11.45-.16-.48.61.09.57-.1.09-.26.08-.41.16a3.85,3.85,0,0,0,.86.17l-.21.28a1.13,1.13,0,0,1,1-.09,3.17,3.17,0,0,0,.31-.24l.31.23a.66.66,0,0,1-.4.07l.11,0c-.13.15-.38.15-.64.15L38.5,31a2.43,2.43,0,0,0-.82.11.2.2,0,0,1,.14.05.45.45,0,0,0-.18,0s.06,0,.18,0l-.46.19.19,0c-.07.14-.13.27-.21.4.52.12,1.29.22,1.54.64a3.21,3.21,0,0,0-1,.09c.42-.16-.22-.28-.18-.49,0,.12-.23.13-.3.12a3.12,3.12,0,0,1,.45.29c-.34,0-.24.11-.37.22.67-.16.49.22.7.35-.23,0-.46,0-.42-.17-.5.24.82.2.4.43,0,0,0-.07-.1-.08.22.09.06.37-.14.32v0c-.07.3,0,.92.58,1l-.82-.08c.65.19,1.29.41,1.93.65-.5-.08-1.69,0-2-.23-.07.07-.16.15,0,.32a1.63,1.63,0,0,1,.76,0,4.49,4.49,0,0,0-.79.31c.11-.06.88.08.85.21-.12,0-.77-.06-.85-.11l.74.37a1.9,1.9,0,0,0-.87,0c.15,0,0,.26,0,.34l.19-.1c-.15.32,1,.47.94.81-.15-.06-.95-.23-1.07-.08a6.51,6.51,0,0,1,2.07,1l-.24,0,.22.28c-.56-.25-1.72-.87-2.17-1.15-.19.1-.26,0-.27.19a.25.25,0,0,1-.3-.21l-.21.41c.46.06.4.41.78.46l-.39-.56c.45.05,1.24.49,1.1.8a4,4,0,0,1-.94-.22c.15.07.24.35.13.36L37.14,38c-.2.15.55.4.07.53,0,.07-.62.11-.35.17a10.52,10.52,0,0,1,2.5.42,3.53,3.53,0,0,1-.84.33c-.43,0-.92-.37-1.29-.34a.82.82,0,0,1,.3.17c-.12.05-.37-.11-.35.07.45.12-.1.33.37.16.1.19-.13.15-.15.35a1.82,1.82,0,0,1,1.06.57,1.39,1.39,0,0,0-.34,0c-.11.33-.36.47-.43.79-.11,0-.28.13-.46,0,.07.07.22.14.21.24-.44.11,0-.23-.52-.18.26.06.31.32.45.5.41,0,.14-.31,0-.48a1.91,1.91,0,0,1,1.29.87c.09.29-.39,0-.32.1-.2.47.9.62.41,1-.39.09-.72-.14-1-.16-.09-.24.29-.28.31-.43l-.21.14c-.1-.09-.16-.25,0-.31-.35.07-.24.83-.62,1.15.11.09.21.23.37.21l0-.14c.31,0,.36.32.52.19.17.2.45.45.24.65l-.42,0c.13,0,.28-.09.17-.18.16.13-.63.23-.11.45l.31-.1c.17.2.57.49.4.67.42,0,0-.06.46-.11-.61,0,.13-.51-.53-.44.58,0,.29-.2.8-.3-.14,0-.27,0-.17-.14l-.11-.06h0s0,0,0,0a.51.51,0,0,1-.22,0c-.29-.15-.23-.41-.37-.54.09-.09.15.08.3,0l-.21-.19c.31,0,.56-.16.68.11l.06-.21c.19-.09.3-.25.19-.38.09-.09-.28-.32-.06-.19l-.12-.37h.08c.11-.32-.36-.78.26-1a.38.38,0,0,1,0-.43l.26,0c-.06-.16.35-.38.09-.5.73,0,.3-.67.47-.9l-.33-.08a1,1,0,0,0-.11-.61l-.3,0c-.21-.23.3-.45.33-.76.11,0,.06.11,0,.15.74-.25-.37-.85.18-1.1-.1-.1-.06-.16,0-.21a0,0,0,0,0,0,0s0,0,0,0l.18-.09a.43.43,0,0,0-.18.08.6.6,0,0,0-.08-.28h.33v0c.13-.08-.14-.1-.39-.08a.74.74,0,0,0-.19-.15c.54,0-.14-.27.43-.32-.26-.09-.16-.51-.73-.61.07,0,.11,0,.11,0s.15-.2,0-.31l.42,0L39.67,35a.66.66,0,0,1,.73,0c-.48-.37-.17-.29-.65-.6l.27,0c0-.11-.37-.28-.15-.34.53-.25.06-1.17.44-1.85-.77.22.32-.35-.3-.29.19-.06.28-.17.45-.09-.23-.3.2-.56-.35-.68.18-.08.29,0,.39-.05s-.18-.07-.08-.13.16,0,.25.05c-.11-.34-.69-.23-1.22-.12.21-.22.15-.3-.22-.31.15-.11.3-.26.42-.08,0-.11,0-.77-.39-.63.09-.07,0-.16-.09-.17a1.23,1.23,0,0,0-.2-.5l0,.09c-.52.14-.19-.13-.34-.28l0,0c.11-.59-.25-.08-.1-.7l-.27.19c-.62.34.15-.55-.23-.63l-.11.18c-.27,0,.57-.87.54-1.05s.11,0,.17,0c.1-.57-.37.21-.62,0,.15-.18.51-.3.42-.49.08-.2-.93,0-.76-.45-.1.16-.2.32-.38.31s.15-.85-.38-.61a.32.32,0,0,1,.08-.12c-.21,0-.51-.19-.79,0,.73-.88-1-.27-.26-1l-.35-.27.09-.07c-.15-.25-.4-.14-.64,0,0-.09.1-.13.15-.16-.14-.44-.2-.44-.81-.32l.22-.26c-.21.07,0-.8-.61-.81a.37.37,0,0,1,.14-.07c-.6,0-.11-1.44-1.1-.68h-.42c.21.34-.42.34-.45.6-.15-.06,0-.54.16-.46l0,.07c.49-.41-.19-.5.12-.81-.57-.5-.88-1.28-1.41-1.78l-.27.42-.16-.18c0-.13.19-.36.31-.22.11-.27-.39,0-.46.06-.13-.39.49-.35.41-.43l-.13-.07,0,.07c-.22.07-.37.23-.52.06s.15-.28.12-.33,0-.05,0-.06L30,18.68l-.16.38c-.23.06-.21-.2-.39.23.28-.67-.76-.94-.73-1.19a.58.58,0,0,1-.66-.19c0,.1-.24.47-.37.31.61-.69-.07-.55.18-1.18-.13.44-.55-.26-.71.38-.1-.16.19-.29.2-.54-.55.05-.64-.72-1.15-.9-.07.1-.1.3-.29.39l.09-.65c-.12,0-.44.54-.39.09,0,.09-.07.25-.15.24-.61-1-2-.57-2.52-2,0,.28-.06.26-.17.22.05.08-.11.27-.17.43l-.23-.58c-.24.38-.45-.15-.64.23l.15,0c-.35.41-.18,1.15-.45,1.74.4-.46.12,1,.73.34,0,.15-.14.17-.17.32.18-.22.3-.23.4-.05l-.05.06c.48.14.54.49.93.9l.12-.3c.08.09.06.19.07.29.35-.37-.28-.18.08-.6-.17.64.73.42.45,1.12.15.09.14-.35.3-.25l-.07.19.18-.2c.08.1,0,.35-.09.5,0,0-.09,0-.13,0,0,.28.41.16.41.25l-.08-.19c.52.09.87.65,1.5.59l.06-.15c.47,0,.14.31.54.45l0,0a.31.31,0,0,1,.37,0c-.19.08-.06.39-.28.47.5,0,.3-.07.86-.36l-.11.24c.21-.12.29-.21.5-.13-.27.06-.14.38-.47.49,0,.69.85,0,.49.71.6-.41,0-.53.14-.58.07-.24.46-.3.52-.15s-.4.83-.13,1c0,0-.06,0-.08,0,0,.22.35,0,.28.31.34-.26.14.15.51-.24L28.91,21c.23,0,.77-.35.8.08a1.25,1.25,0,0,1-.35.13c-.05.18.19,0,.15.21-.38.39-.37-.16-.78,0-.09.23.53-.06.07.32.59-.46.19.29.74,0l-.23.23c.06,0,.22-.08.27,0l-.38.23c.38-.13.06.48.32.46-.28-.25.21-.35.25-.63.64,0-.38.8.11,1.05-.08,0-.06-.33.12-.36a.74.74,0,0,1,0,.46c.29.19.19-.28.43-.32-.18.37.24,0,.44,0l-.23.24c.14.42.55-.42.63,0l-.42.22.21.05-.29.24c.34-.05.34,0,.41.26.13-.2.44-.41.57-.29,0,.22-.27.17,0,.31-.19.11-.42.25-.28,0-.08.07-.19.11-.27.17-.06.25.2.27.26.33a.16.16,0,0,1,0-.12l.58-.07a.37.37,0,0,1-.25.21c.08,0,.22-.05.32,0-.21.17-.4.37-.6.35l.46,0c-.07.1-.1.36-.21.39,0,.25.71,0,.74.3a.31.31,0,0,1,.17,0c.12.22,0,.6.5.55l-.23.45c.24.09.28-.58.67-.44s-.22.36-.25.52c.26-.07.78-.25.66.19C33.81,26.79,33.82,26.69,33.74,26.67Zm1.93,1.8c-.09,0-.31.07-.19-.08C35.81,28.19,35.7,28.34,35.67,28.47Zm2.39,3c-.11,0-.07-.08,0-.17S38.13,31.38,38.06,31.46ZM39.19,43.3h0C39.32,43.2,39.26,43.23,39.19,43.3Zm-.19.21a.15.15,0,0,0,.13.05c-.08,0-.08-.1,0-.15S38.94,43.43,39,43.51ZM30.21,19.06l0,.1C30.05,19.15,30.13,19.11,30.21,19.06Z" transform="translate(-0.39 -0.27)"/><path class="cls-2" d="M37.52,31.16l.16-.07A.18.18,0,0,0,37.52,31.16Z" transform="translate(-0.39 -0.27)"/><polygon class="cls-2" points="32.02 25.28 32.02 25.27 31.97 25.31 32.02 25.28"/><path class="cls-2" d="M37.05,39.16a.4.4,0,0,1,.18-.07C37.15,39.08,37.08,39.09,37.05,39.16Z" transform="translate(-0.39 -0.27)"/><path class="cls-2" d="M39.27,44.93l-.05-.18c0,.08-.07.1-.13.12S39.28,44.88,39.27,44.93Z" transform="translate(-0.39 -0.27)"/><path class="cls-2" d="M37,45.88s0,0,0,.08l.15,0C37.19,45.89,37.08,45.79,37,45.88Z" transform="translate(-0.39 -0.27)"/><path class="cls-2" d="M38.17,44.85c-.27,0-.2.08-.17.2v0C38.37,45.14,38.27,45,38.17,44.85Z" transform="translate(-0.39 -0.27)"/><path class="cls-2" d="M38,45.07a.14.14,0,0,1,0,.11C38.14,45.22,38,45.14,38,45.07Z" transform="translate(-0.39 -0.27)"/><path class="cls-2" d="M39.11,43.86c-.08,0,.34.11.22.11C39.67,44.1,39,43.54,39.11,43.86Z" transform="translate(-0.39 -0.27)"/><polygon class="cls-2" points="36.87 44.49 37.21 44.52 36.95 44.4 36.87 44.49"/><path class="cls-2" d="M37.69,43.94l-.13.16a.1.1,0,0,1,.1.07C37.7,44.06,37.79,44,37.69,43.94Z" transform="translate(-0.39 -0.27)"/><path class="cls-2" d="M37.66,44.17a.12.12,0,0,0,0,.15A.31.31,0,0,0,37.66,44.17Z" transform="translate(-0.39 -0.27)"/><polygon class="cls-2" points="36.82 44.23 36.9 44.19 36.95 44.07 36.82 44.23"/><path class="cls-2" d="M38.14,42.06l0-.21c-.11,0-.19,0-.16.07S38,42.07,38.14,42.06Z" transform="translate(-0.39 -0.27)"/><path class="cls-2" d="M37.11,42.45a.72.72,0,0,1,.27,0L37,42.33Z" transform="translate(-0.39 -0.27)"/><path class="cls-2" d="M37.13,41.87c-.11,0-.28-.35-.3-.1C36.94,41.82,37,42,37.13,41.87Z" transform="translate(-0.39 -0.27)"/><polygon class="cls-2" points="37.85 38.82 37.84 38.87 38.53 38.99 37.85 38.82"/><path class="cls-2" d="M37,36.32c-.19.19.42.1.19.27.15.08.19-.14.32-.06C37.38,36.37,37.48,36.31,37,36.32Z" transform="translate(-0.39 -0.27)"/><path class="cls-2" d="M37.53,36.53l.1.08A.22.22,0,0,0,37.53,36.53Z" transform="translate(-0.39 -0.27)"/><polygon class="cls-2" points="21.89 13.4 21.79 13.21 21.8 13.46 21.89 13.4"/><path class="cls-2" d="M21.81,14l.12-.43L21.7,14S21.82,13.94,21.81,14Z" transform="translate(-0.39 -0.27)"/><path class="cls-2" d="M35.18,29.3l.09-.05c.08-.09.07-.12,0-.18Z" transform="translate(-0.39 -0.27)"/><polygon class="cls-2" points="33.88 27.46 33.9 27.49 34.15 27.17 33.88 27.46"/><path class="cls-2" d="M32.77,26.9c0,.06.16.05.19.11C32.81,27,33.11,26.53,32.77,26.9Z" transform="translate(-0.39 -0.27)"/><path class="cls-2" d="M.41,45.32s0,.26,0,.31S.39,45.24.41,45.32Z" transform="translate(-0.39 -0.27)"/><polygon class="cls-2" points="0.49 44.3 0.5 44.41 0.53 44.12 0.49 44.3"/><path class="cls-2" d="M1.44,44.46c-.15-.47-.19.12-.32,0l0-.11,0,.4C1.22,44.63,1.33,44.34,1.44,44.46Z" transform="translate(-0.39 -0.27)"/><path class="cls-2" d="M1.94,45.44c-.05-.19,0-.18-.08,0l0,0Z" transform="translate(-0.39 -0.27)"/><path class="cls-2" d="M1.88,45.44s.07.14,0,0Z" transform="translate(-0.39 -0.27)"/><path class="cls-2" d="M2.14,45.27l-.05.19c0,.1.11.11.1.2C2.26,45.55,2.22,45.45,2.14,45.27Z" transform="translate(-0.39 -0.27)"/><path class="cls-2" d="M2.14,44.91l0,.08S2.14,45.05,2.14,44.91Z" transform="translate(-0.39 -0.27)"/><path class="cls-2" d="M2.06,45.16l0-.17c0-.07,0-.23,0,.06C2.06,44.91,2.07,45.05,2.06,45.16Z" transform="translate(-0.39 -0.27)"/><path class="cls-2" d="M2,45.09a.32.32,0,0,1-.08-.33C1.77,44.86,1.86,45.19,2,45.09Z" transform="translate(-0.39 -0.27)"/><path class="cls-2" d="M1.37,44l-.08-.13,0,.17C1.28,43.92,1.41,44.11,1.37,44Z" transform="translate(-0.39 -0.27)"/><path class="cls-2" d="M2.67,45.42c0-.1-.08-.26-.11-.39l0,.13A.55.55,0,0,1,2.67,45.42Z" transform="translate(-0.39 -0.27)"/><path class="cls-2" d="M2.56,45l0-.19C2.53,44.83,2.53,44.92,2.56,45Z" transform="translate(-0.39 -0.27)"/><polygon class="cls-2" points="1.66 44.11 1.59 44.51 1.68 44.1 1.66 44.11"/><polygon class="cls-2" points="2.61 45.1 2.61 45.34 2.63 44.97 2.61 45.1"/><path class="cls-2" d="M3.22,45.28c0,.2.12.32.1.45.06,0,.07-.23.09-.39C3.38,45.44,3.32,45.43,3.22,45.28Z" transform="translate(-0.39 -0.27)"/><path class="cls-2" d="M3.44,45.11a1.17,1.17,0,0,0,0,.23A1,1,0,0,0,3.44,45.11Z" transform="translate(-0.39 -0.27)"/><path class="cls-2" d="M2.77,44.86c0,.06.06.22.13.27l-.1-.27Z" transform="translate(-0.39 -0.27)"/><path class="cls-2" d="M2.8,44.85h0Z" transform="translate(-0.39 -0.27)"/><path class="cls-2" d="M2.76,44.86h0S2.76,44.82,2.76,44.86Z" transform="translate(-0.39 -0.27)"/><path class="cls-2" d="M2.33,44.59A.77.77,0,0,0,2.26,44,3.18,3.18,0,0,1,2.33,44.59Z" transform="translate(-0.39 -0.27)"/><path class="cls-2" d="M2.64,44.51l-.1,0a.75.75,0,0,1,0,.26Z" transform="translate(-0.39 -0.27)"/><polygon class="cls-2" points="2.28 44.14 2.25 44.24 2.29 44.26 2.28 44.14"/><path class="cls-2" d="M3.23,44.88c0-.14,0-.16.1-.19a.28.28,0,0,0-.18,0C3.16,44.73,3.17,44.9,3.23,44.88Z" transform="translate(-0.39 -0.27)"/><path class="cls-2" d="M3,44.84v0S3,44.79,3,44.84Z" transform="translate(-0.39 -0.27)"/><polygon class="cls-2" points="3.42 44.32 3.4 44.27 3.41 44.32 3.42 44.32"/><path class="cls-2" d="M3.13,44.59c0-.05-.06,0-.06.12a.18.18,0,0,1,.08-.07S3.14,44.57,3.13,44.59Z" transform="translate(-0.39 -0.27)"/><path class="cls-2" d="M3.55,45a.85.85,0,0,0-.11-.14C3.48,44.89,3.55,45,3.55,45Z" transform="translate(-0.39 -0.27)"/><path class="cls-2" d="M3.05,44.9h0C3.07,45,3.06,44.94,3.05,44.9Z" transform="translate(-0.39 -0.27)"/><path class="cls-2" d="M3.05,44.9s0-.12,0-.19a.28.28,0,0,0,0,.11Z" transform="translate(-0.39 -0.27)"/><path class="cls-2" d="M3.56,42.73c0,.27,0,.54-.15.27a5.38,5.38,0,0,0,.38,1.54.74.74,0,0,1,0-.39c-.06-.14-.27-.3-.25-.55s.12.07.21.2c-.12-.32.05-.52-.08-1L3.61,43A1.17,1.17,0,0,0,3.56,42.73Z" transform="translate(-0.39 -0.27)"/><path class="cls-2" d="M3.61,44.55l0,0a1.22,1.22,0,0,1,.21.33.94.94,0,0,0,0-.33H3.61Z" transform="translate(-0.39 -0.27)"/><path class="cls-2" d="M3.41,44.63a1.86,1.86,0,0,0-.09-.73c-.1,0,0,.25-.06.39.16-.11,0,.17.15.31a.24.24,0,0,1-.08.09l.11.12v0h0s0-.06,0,0h0l0-.11c.07,0,0,.08,0,.11v0h0l.14-.2S3.49,44.58,3.41,44.63Z" transform="translate(-0.39 -0.27)"/><path class="cls-2" d="M2.23,43.37a.14.14,0,0,1,0,.07S2.26,43.37,2.23,43.37Z" transform="translate(-0.39 -0.27)"/><path class="cls-2" d="M2.34,43.53s0,.16,0,.14,0-.14,0-.23a.41.41,0,0,0,.06.34v0a1.67,1.67,0,0,1,.25.47A6.78,6.78,0,0,0,2.34,43.53Z" transform="translate(-0.39 -0.27)"/><path class="cls-2" d="M2.86,44,3,43.84l-.13-.24,0,.15C2.79,43.71,2.85,43.89,2.86,44Z" transform="translate(-0.39 -0.27)"/><polygon class="cls-2" points="3.46 44.46 3.51 44.77 3.5 44.32 3.46 44.46"/><polygon class="cls-2" points="3.65 44.38 3.7 44.65 3.71 44.48 3.65 44.38"/><path class="cls-2" d="M13,37.86v-.09A.27.27,0,0,0,13,37.86Z" transform="translate(-0.39 -0.27)"/><path class="cls-2" d="M12.73,38l.06.12A.24.24,0,0,0,12.73,38Z" transform="translate(-0.39 -0.27)"/><path class="cls-2" d="M8.77,43.37c.15.22.34.56.24.28l-.12-.28C8.87,43.44,8.82,43.42,8.77,43.37Z" transform="translate(-0.39 -0.27)"/><path class="cls-2" d="M11.25,40.53l-.06-.07c0,.09.06.19.08.27Z" transform="translate(-0.39 -0.27)"/><path class="cls-2" d="M10.78,39.4l.15.14A.5.5,0,0,0,10.78,39.4Z" transform="translate(-0.39 -0.27)"/><path class="cls-2" d="M14.13,36.72,14,36.45C13.94,36.49,14.05,36.6,14.13,36.72Z" transform="translate(-0.39 -0.27)"/><path class="cls-2" d="M6,44.08c.09.1.14.14.18.14C6.06,44.07,6,43.84,6,44.08Z" transform="translate(-0.39 -0.27)"/><path class="cls-2" d="M14.52,40.6a.27.27,0,0,0-.06-.17A.29.29,0,0,0,14.52,40.6Z" transform="translate(-0.39 -0.27)"/><path class="cls-2" d="M6.33,44.18l0-.06c0,.06-.06.11-.12.1S6.33,44.39,6.33,44.18Z" transform="translate(-0.39 -0.27)"/><path class="cls-2" d="M18.19,32.9h0S18.19,32.89,18.19,32.9Z" transform="translate(-0.39 -0.27)"/><path class="cls-2" d="M21.66,32.78a.14.14,0,0,1,0,.09S21.68,32.84,21.66,32.78Z" transform="translate(-0.39 -0.27)"/><path class="cls-2" d="M4.85,44.61s0,0,0,0Z" transform="translate(-0.39 -0.27)"/><path class="cls-2" d="M4.39,43.51a.42.42,0,0,0,0-.14C4.38,43.44,4.39,43.48,4.39,43.51Z" transform="translate(-0.39 -0.27)"/><path class="cls-2" d="M6.26,42.29h0S6.25,42.25,6.26,42.29Z" transform="translate(-0.39 -0.27)"/><path class="cls-2" d="M4.75,44.49s0,.06.08.07Z" transform="translate(-0.39 -0.27)"/><path class="cls-2" d="M4.79,44.62l0,0S4.77,44.68,4.79,44.62Z" transform="translate(-0.39 -0.27)"/><path class="cls-2" d="M4.9,44.58a.07.07,0,0,1-.07,0l0,0Z" transform="translate(-0.39 -0.27)"/><path class="cls-2" d="M16.85,35.77h0C16.82,35.67,16.82,35.69,16.85,35.77Z" transform="translate(-0.39 -0.27)"/><polygon class="cls-2" points="8.39 39.85 8.39 39.86 8.4 39.87 8.39 39.85"/><path class="cls-2" d="M8.84,39.86c.07.37,0,.34,0,.28l.33.78Z" transform="translate(-0.39 -0.27)"/><path class="cls-2" d="M13.54,37.41l-.23-.17c-.14-.43,0-.34-.27-.61.49.78-.25.27.24,1.06l-.16-.13s0-.05,0-.05c-.34-.31.28.61.08.59a.38.38,0,0,1-.22-.24l0,.26s-.12-.14-.08-.14l-.12.15,0,0a4.5,4.5,0,0,1,.14.46c-.11-.09,0-.1-.1-.19l0,.25c-.16-.19-.2-.43-.12-.44-.55-.75,0,.25-.41-.11l0-.16c-.31-.42-.28-.22-.54-.45.11.14.6.61.61.87-.06-.05-.11-.06-.08.13-.16-.28-.17-.19-.22-.13L11.91,38a2,2,0,0,0,.16.54c-.1,0-.28-.29-.43-.53-.16,0,.34.43.23.59-.18-.09-.17.1-.18.4-.15-.1-.11-.25-.2-.35l.1.35s-.07-.1-.09-.15c0,.15.19.39.15.54.19.45-.49-.53-.36,0a3.11,3.11,0,0,1-.18-.4,3.35,3.35,0,0,0,.05.8l-.23-.21a1.91,1.91,0,0,1,.32,1l.22.3-.06.28a1.27,1.27,0,0,1-.14-.38v.11a1.44,1.44,0,0,1-.25-.61l.16.23a4.36,4.36,0,0,0-.27-.77.24.24,0,0,1,0,.12.68.68,0,0,0-.06-.16s0,.05,0,.16l-.23-.43.07.18-.31-.19a3.79,3.79,0,0,1,.08,1.5,6.05,6.05,0,0,0-.37-.94c.23.39.09-.24.24-.21-.08,0-.15-.2-.16-.28l0,.46c-.13-.32-.14-.22-.25-.33.3.62,0,.49,0,.71-.09-.21-.15-.43,0-.42-.31-.44.15.8-.12.44,0,0,.05,0,0-.1,0,.21-.19.11-.23-.09h0c-.2,0-.5.19-.33.74,0-.07-.21-.67-.25-.78L9.39,42a10.2,10.2,0,0,1-.6-1.87c-.07-.05-.14-.11-.16.08a3.17,3.17,0,0,1,.28.71,4.57,4.57,0,0,0-.45-.65,2.05,2.05,0,0,1,.22.84c0-.12-.26-.73-.26-.81l.09.77a4,4,0,0,0-.31-.81c.06.14-.14,0-.16.12l.12.15c-.21-.05.16,1.08,0,1.1a3.29,3.29,0,0,0-.37-1,10,10,0,0,1,.3,2.2L8,42.62l-.06.29c-.09-.59-.24-1.85-.27-2.35-.12-.14-.1-.24-.2-.19-.09-.19,0-.32,0-.34L7.16,40c.14.43,0,.49.07.86l.12-.54c.15.44.24,1.29,0,1.27a6.9,6.9,0,0,1-.25-.94c0,.16-.07.34-.12.24V40.6c-.14-.14,0,.63-.22.24,0,0-.28-.53-.21-.27A19.84,19.84,0,0,1,7.33,43a3.54,3.54,0,0,1-.47-.65c-.18-.37-.17-1-.32-1.29a1.68,1.68,0,0,1,0,.33c-.07-.09-.09-.38-.17-.3.11.46-.19,0,.07.39-.06.16-.12-.06-.22,0a3.16,3.16,0,0,1,.12,1.17,2.38,2.38,0,0,0-.12-.33c-.19,0-.34-.16-.52-.12a1.11,1.11,0,0,1-.17-.42c0,.08,0,.24,0,.27-.2-.37.1-.09-.1-.54a1.18,1.18,0,0,1-.07.58c.12.4.19,0,.22-.15a2.78,2.78,0,0,1,0,1.48c-.11.17-.15-.35-.16-.26-.29,0,0,1-.32.68a4.27,4.27,0,0,1-.25-1c.08-.16.23.18.31.15l-.14-.14c0-.13.06-.24.13-.15-.15-.3-.47,0-.75-.2a.72.72,0,0,0,0,.41l0-.07c.13.28,0,.43.09.55,0,.22-.08.56-.24.43l-.12-.41c0,.12.14.23.15.09,0,.2-.32-.5-.26,0l.15.27c0,.22-.06.68-.2.58.14.39,0-.06.2.4-.2-.57.3,0,0-.63.2.52.19.2.41.64,0-.14-.1-.25,0-.21v-.12h0v0s0,0,0,0a.84.84,0,0,1-.09-.19c0-.32.13-.35.14-.52.07.05,0,.16.08.3l0-.26c.08.3.27.46.17.67l.13,0c.11.15.22.19.25,0,.07,0,.07-.36.07-.12l.15-.23,0,.08c.19,0,.26-.59.61-.11,0-.09.08-.2.21-.14l.09.25c0-.11.31.19.27-.09.28.67.44,0,.61.13l-.09-.34c.11,0,.17-.13.26-.3l-.1-.29c0-.27.33.13.49,0,0,.12,0,.1-.08,0,.4.6.26-.61.59-.18,0-.12.05-.1.11,0a0,0,0,0,0,0,0s0,0,0,0l.11.14a.64.64,0,0,0-.1-.14.31.31,0,0,0,.1-.16l.12.3h0c.09.1,0-.16-.11-.38a1.41,1.41,0,0,0,0-.22c.2.49.07-.21.3.31,0-.27.19-.28,0-.84,0,.07,0,.1,0,.11s.15.09.14-.08l.17.38-.07-.57a1.08,1.08,0,0,1,.27.67c0-.53.09-.23.07-.74l.08.25s0-.39.12-.2c.3.44.61-.16,1.1.16-.37-.71.27.27.05-.31a1.12,1.12,0,0,1,.19.42c.08-.24.35.17.25-.35.1.17.08.27.14.36s0-.17.05-.07a.34.34,0,0,1,0,.24c.16-.1-.07-.64-.28-1.14.19.2.21.15.12-.2.1.15.23.29.16.4s.44.08.26-.32c.06.09.09,0,.08-.06s.16,0,.26-.1l-.06,0c-.19-.5,0-.16.11-.26l0,0c.39.23,0-.21.42.07l-.16-.29c-.3-.63.38.28.38,0l-.13-.14c0-.25.64.74.75.78s0,.1,0,.15c.38.26-.19-.39-.1-.55.14.19.25.53.36.52s-.1-.8.24-.49a.82.82,0,0,1-.24-.43c.06-.11.6.43.39-.1a.31.31,0,0,1,.09.11,1.14,1.14,0,0,0,0-.63c.67.91.13-.74.7.14l.18-.19,0,.09c.18,0,.08-.27,0-.51.07,0,.1.13.13.18.31,0,.31,0,.17-.55l.21.26c-.07-.19.59.22.54-.24a.64.64,0,0,1,.08.14c0-.46,1.08.34.38-.68l-.06-.34c-.23.06-.31-.44-.51-.54,0-.1.4.15.36.27l-.05,0c.38.51.36,0,.64.33.3-.31.87-.34,1.19-.62l-.38-.32.12-.08c.11.06.31.24.22.3.24.16,0-.29-.12-.37.29,0,.36.47.41.43l0-.08-.06,0c-.09-.19-.24-.35-.14-.42s.25.18.28.17.05,0,.05,0L19,37l-.34-.22c-.09-.19.13-.11-.25-.35.59.38.64-.33.84-.25-.14-.27-.07-.35.05-.44-.09,0-.44-.29-.33-.34.69.61.45.08,1,.41-.39-.2.13-.34-.45-.61.12,0,.28.2.5.27-.14-.4.5-.29.57-.62a1.41,1.41,0,0,1-.38-.28l.58.2c0-.08-.54-.42-.14-.29-.09,0-.23-.1-.24-.16.82-.2.18-1.22,1.42-1.28-.24,0-.24-.08-.22-.14s-.27-.13-.42-.19l.52,0c-.4-.23.08-.26-.31-.46l0,.11a13.82,13.82,0,0,0-1.68-.61c.48.34-.88-.12-.2.38-.14,0-.18-.12-.32-.17.23.16.26.23.1.26l-.05,0c-.07.26-.36.23-.66.38l.29.14c-.07,0-.16,0-.25,0,.39.31.12-.14.55.19-.61-.26-.24.38-.9,0-.06.08.33.18.27.26L18.45,33l.21.16c-.07,0-.3-.08-.45-.17,0,0,0-.07,0-.09-.24-.06-.06.23-.14.21h.16c0,.32-.38.42-.21.86l.13.08c.1.33-.23,0-.26.27l0,0c.09.13.11.23.06.26-.1-.15-.33-.14-.44-.32.1.35.12.23.46.7l-.22-.14c.14.19.23.27.21.4-.1-.21-.34-.2-.49-.46-.55-.2.19.62-.47.15.44.55.42.12.49.27s.32.41.22.42-.74-.52-.85-.38,0,0,0-.06c-.18-.07.08.27-.18.12.26.33-.1.06.27.45l0-.2c0,.16.41.67.08.57a1.33,1.33,0,0,1-.17-.3c-.14-.08,0,.14-.14,0-.37-.39.07-.22-.15-.59-.2-.12.14.41-.24,0,.47.58-.19.06.12.55l-.22-.24s.1.19.07.21L16,35.36c.18.33-.34-.09-.28.11.14-.14.3.25.52.37.11.49-.68-.53-.77-.23,0-.06.23,0,.29.2a.87.87,0,0,1-.36-.17c-.08.17.24.23.32.43-.31-.25,0,.18.06.33l-.22-.25c-.29,0,.41.56.1.49l-.24-.4v.15l-.22-.3c.1.28,0,.25-.12.23.16.17.37.47.3.54-.17-.11-.17-.27-.24-.14-.11-.18-.25-.41,0-.21L15,36.25c-.19-.13-.16.07-.2.1a.12.12,0,0,1,.09,0l.14.47a.64.64,0,0,1-.19-.26s.07.19,0,.24a1.74,1.74,0,0,1-.34-.58l0,.34c-.08-.08-.27-.2-.31-.29s.12.56-.11.47a.3.3,0,0,1,.05.14c-.14,0-.42-.18-.33.2l-.34-.35c0,.16.44.44.38.7s-.27-.31-.38-.4c.08.24.25.72-.07.46C13.46,37.42,13.52,37.46,13.54,37.41Zm-1.11.93c0-.07-.07-.29,0-.13C12.63,38.56,12.52,38.41,12.43,38.34ZM10.78,40c0-.1,0-.07.12,0S10.85,40.11,10.78,40Zm-5.55,4.2v0C5.33,44.33,5.3,44.29,5.23,44.24Zm-.17-.11a.32.32,0,0,0,0,.14c0-.08,0-.1.06-.08S5.09,44.05,5.06,44.13ZM18.74,37l-.08,0C18.63,36.85,18.68,36.93,18.74,37Z" transform="translate(-0.39 -0.27)"/><path class="cls-2" d="M10.83,39.53a1.14,1.14,0,0,1,.09.16A.26.26,0,0,0,10.83,39.53Z" transform="translate(-0.39 -0.27)"/><polygon class="cls-2" points="13.77 36.5 13.77 36.5 13.74 36.45 13.77 36.5"/><path class="cls-2" d="M6.44,40.9a.56.56,0,0,1,.1.15C6.52,41,6.49,40.91,6.44,40.9Z" transform="translate(-0.39 -0.27)"/><path class="cls-2" d="M4.45,44.85l.08-.11s-.08,0-.11-.08S4.48,44.84,4.45,44.85Z" transform="translate(-0.39 -0.27)"/><path class="cls-2" d="M3.26,43s0,0,0,.06l0,.15A.14.14,0,0,0,3.26,43Z" transform="translate(-0.39 -0.27)"/><path class="cls-2" d="M4.14,43.8c-.07-.27-.11-.17-.16-.1s0,0,0,0C4.06,44.08,4.1,43.94,4.14,43.8Z" transform="translate(-0.39 -0.27)"/><path class="cls-2" d="M4,43.71a0,0,0,0,1-.05,0C3.94,43.88,4,43.76,4,43.71Z" transform="translate(-0.39 -0.27)"/><path class="cls-2" d="M4.93,44.35c0-.06.06.35,0,.25C5,45,5.05,44.14,4.93,44.35Z" transform="translate(-0.39 -0.27)"/><polygon class="cls-2" points="3.5 42.65 3.59 42.98 3.56 42.7 3.5 42.65"/><path class="cls-2" d="M4.42,43.06,4.3,43a.16.16,0,0,1,0,.12C4.37,43.1,4.45,43.15,4.42,43.06Z" transform="translate(-0.39 -0.27)"/><path class="cls-2" d="M4.3,43.11s-.06,0-.06.07S4.29,43.15,4.3,43.11Z" transform="translate(-0.39 -0.27)"/><polygon class="cls-2" points="3.6 42.52 3.65 42.58 3.72 42.59 3.6 42.52"/><path class="cls-2" d="M5.48,42.87l.08-.12c0-.12-.06-.18-.09-.12A.4.4,0,0,0,5.48,42.87Z" transform="translate(-0.39 -0.27)"/><path class="cls-2" d="M4.94,42c0,.06.06.14.11.24L5,41.87Z" transform="translate(-0.39 -0.27)"/><path class="cls-2" d="M5.22,41.87c0-.12.07-.36-.06-.3S5.1,41.8,5.22,41.87Z" transform="translate(-0.39 -0.27)"/><polygon class="cls-2" points="6.52 41.7 6.5 41.72 6.69 42.38 6.52 41.7"/><path class="cls-2" d="M7.77,40c-.17-.11.1.42-.07.26,0,.16.14.13.16.28C7.87,40.32,7.94,40.4,7.77,40Z" transform="translate(-0.39 -0.27)"/><path class="cls-2" d="M7.86,40.51a.31.31,0,0,0,0,.11A.54.54,0,0,0,7.86,40.51Z" transform="translate(-0.39 -0.27)"/><polygon class="cls-2" points="21.75 32.36 21.92 32.33 21.68 32.29 21.75 32.36"/><path class="cls-2" d="M21.74,32.26l.42.15-.35-.2S21.84,32.29,21.74,32.26Z" transform="translate(-0.39 -0.27)"/><path class="cls-2" d="M11.81,37.66l0,.1c.06.09.08.09.12.09Z" transform="translate(-0.39 -0.27)"/><polygon class="cls-2" points="12.45 37.17 12.43 37.17 12.67 37.5 12.45 37.17"/><path class="cls-2" d="M13.27,36.55s0,.11-.06.11S13.56,37,13.27,36.55Z" transform="translate(-0.39 -0.27)"/><polygon class="cls-3" points="23.93 53.75 18.26 53.75 19.26 48.08 24.93 48.08 23.93 53.75"/><path class="cls-4" d="M26,54.28s.25.07.3.08S25.89,54.27,26,54.28Z" transform="translate(-0.39 -0.27)"/><polygon class="cls-4" points="25.02 53.35 25.14 53.38 24.87 53.25 25.02 53.35"/><path class="cls-4" d="M25.51,53.11c-.48,0,0,.2-.14.26h-.11l.38.11C25.6,53.35,25.37,53.16,25.51,53.11Z" transform="translate(-0.39 -0.27)"/><path class="cls-4" d="M26.6,53c-.19,0-.15-.09-.07,0h0A.06.06,0,0,1,26.6,53Z" transform="translate(-0.39 -0.27)"/><path class="cls-4" d="M26.58,53.07s.16,0,0,0Z" transform="translate(-0.39 -0.27)"/><path class="cls-4" d="M26.52,52.8l.15.1c.11,0,.15-.06.22,0S26.7,52.79,26.52,52.8Z" transform="translate(-0.39 -0.27)"/><path class="cls-4" d="M26.18,52.67l.06,0C26.29,52.72,26.31,52.71,26.18,52.67Z" transform="translate(-0.39 -0.27)"/><path class="cls-4" d="M26.38,52.82l-.14-.1c-.08,0-.23,0,.05,0C26.15,52.73,26.28,52.77,26.38,52.82Z" transform="translate(-0.39 -0.27)"/><path class="cls-4" d="M26.3,52.85a.36.36,0,0,1-.34,0C26,53,26.34,53,26.3,52.85Z" transform="translate(-0.39 -0.27)"/><path class="cls-4" d="M25,53l-.15,0,.16.08C25,53.06,25.17,53,25,53Z" transform="translate(-0.39 -0.27)"/><path class="cls-4" d="M26.84,52.4a4.07,4.07,0,0,0-.41,0l.11.07A.53.53,0,0,1,26.84,52.4Z" transform="translate(-0.39 -0.27)"/><path class="cls-4" d="M26.43,52.36l-.16-.11C26.24,52.31,26.32,52.34,26.43,52.36Z" transform="translate(-0.39 -0.27)"/><polygon class="cls-4" points="25.25 52.29 25.6 52.49 25.25 52.27 25.25 52.29"/><polygon class="cls-4" points="26.51 51.83 26.74 51.92 26.4 51.77 26.51 51.83"/><path class="cls-4" d="M26.9,51.89c.19.07.34,0,.45.07A3,3,0,0,0,27,51.7a.14.14,0,0,1,0,.14A.29.29,0,0,1,26.9,51.89Z" transform="translate(-0.39 -0.27)"/><path class="cls-4" d="M26.84,51.54a.92.92,0,0,0,.2.16A.72.72,0,0,0,26.84,51.54Z" transform="translate(-0.39 -0.27)"/><path class="cls-4" d="M26.35,52.12a.77.77,0,0,0,.3,0l-.29,0Z" transform="translate(-0.39 -0.27)"/><path class="cls-4" d="M26.35,52.09h0l0-.06Z" transform="translate(-0.39 -0.27)"/><path class="cls-4" d="M26.34,52.13h0S26.31,52.12,26.34,52.13Z" transform="translate(-0.39 -0.27)"/><path class="cls-4" d="M25.94,52.4a.8.8,0,0,0-.56-.15A4,4,0,0,1,25.94,52.4Z" transform="translate(-0.39 -0.27)"/><path class="cls-4" d="M26,52.1l-.08.08a.8.8,0,0,1,.26,0Z" transform="translate(-0.39 -0.27)"/><polygon class="cls-4" points="25.5 51.78 25.59 51.84 25.61 51.81 25.5 51.78"/><path class="cls-4" d="M26.52,51.75a.26.26,0,0,1-.12-.22.39.39,0,0,0-.12.2C26.37,51.75,26.53,51.8,26.52,51.75Z" transform="translate(-0.39 -0.27)"/><path class="cls-4" d="M26.41,51.91h0S26.36,51.9,26.41,51.91Z" transform="translate(-0.39 -0.27)"/><path class="cls-4" d="M26.53,50.82h0Z" transform="translate(-0.39 -0.27)"/><path class="cls-4" d="M26.22,51.72c-.06,0,0,.06.09.1a.16.16,0,0,1,0-.09Z" transform="translate(-0.39 -0.27)"/><path class="cls-4" d="M26.74,51.31l-.18.09C26.66,51.38,26.81,51.33,26.74,51.31Z" transform="translate(-0.39 -0.27)"/><path class="cls-4" d="M26.48,51.9h0C26.56,51.91,26.52,51.9,26.48,51.9Z" transform="translate(-0.39 -0.27)"/><path class="cls-4" d="M26.48,51.9a1.38,1.38,0,0,0-.17-.08.36.36,0,0,0,.09.08Z" transform="translate(-0.39 -0.27)"/><path class="cls-4" d="M24.64,50.77c.28,0,.52.07.2.16a4.61,4.61,0,0,0,1.63-.1.51.51,0,0,1-.37-.11c-.16.06-.4.27-.63.18s.12-.11.28-.19c-.36.07-.48-.13-1,0l.17.08A1.32,1.32,0,0,0,24.64,50.77Z" transform="translate(-0.39 -0.27)"/><path class="cls-4" d="M26.4,51.08l0,.06c.05-.07.17-.11.4-.2a.47.47,0,0,0-.31-.11l-.08.27Z" transform="translate(-0.39 -0.27)"/><path class="cls-4" d="M26.38,51.38c-.28-.07-.39-.19-.72-.15,0,.14.23.12.34.22,0-.25.15.09.35-.07a.23.23,0,0,1,0,.15l.16-.13h0s-.06,0,0,0h0l-.1,0c.07-.07.07,0,.1,0h.05l-.11-.27C26.37,51.19,26.37,51.25,26.38,51.38Z" transform="translate(-0.39 -0.27)"/><path class="cls-4" d="M24.77,52.05h.07S24.78,52,24.77,52.05Z" transform="translate(-0.39 -0.27)"/><path class="cls-4" d="M25,52s.16,0,.12.08-.14,0-.23,0a.4.4,0,0,0,.34.07l0,0a2.1,2.1,0,0,1,.52,0C25.41,52,25.22,52,25,52Z" transform="translate(-0.39 -0.27)"/><path class="cls-4" d="M25.59,51.74l-.12-.16-.27,0,.16,0C25.28,51.7,25.47,51.71,25.59,51.74Z" transform="translate(-0.39 -0.27)"/><polygon class="cls-4" points="26.29 50.52 26.6 50.53 26.18 50.42 26.29 50.52"/><polygon class="cls-4" points="26.3 50.23 26.58 50.21 26.43 50.15 26.3 50.23"/><path class="cls-4" d="M20.88,50.7l.07,0Z" transform="translate(-0.39 -0.27)"/><path class="cls-4" d="M20.92,50.6l-.13-.05Z" transform="translate(-0.39 -0.27)"/><path class="cls-4" d="M24.1,46.65c0-.25,0-.64-.06-.34l-.09.3C24,46.55,24.08,46.59,24.1,46.65Z" transform="translate(-0.39 -0.27)"/><path class="cls-4" d="M20.41,48.41l.07.09c-.05-.1-.08-.19-.12-.28Z" transform="translate(-0.39 -0.27)"/><path class="cls-4" d="M21.08,49.64l-.16-.19Z" transform="translate(-0.39 -0.27)"/><path class="cls-4" d="M21.06,51.5l.31,0Z" transform="translate(-0.39 -0.27)"/><path class="cls-4" d="M27.09,47.62a1.48,1.48,0,0,0,.25-.34C27.12,47.52,26.81,47.79,27.09,47.62Z" transform="translate(-0.39 -0.27)"/><path class="cls-4" d="M17.87,49.67a.32.32,0,0,0,.17.11A.34.34,0,0,0,17.87,49.67Z" transform="translate(-0.39 -0.27)"/><path class="cls-4" d="M27.38,47l-.09.1s.08,0,.05.14C27.5,47.1,27.6,46.94,27.38,47Z" transform="translate(-0.39 -0.27)"/><path class="cls-4" d="M22.16,52.33v0S22.17,52.32,22.16,52.33Z" transform="translate(-0.39 -0.27)"/><path class="cls-4" d="M23.83,55.31s0,0-.06,0S23.8,55.36,23.83,55.31Z" transform="translate(-0.39 -0.27)"/><path class="cls-4" d="M27,49.29c0,.05,0,0,0,0Z" transform="translate(-0.39 -0.27)"/><path class="cls-4" d="M25.74,50l-.15,0Z" transform="translate(-0.39 -0.27)"/><path class="cls-4" d="M25.19,48.39Z" transform="translate(-0.39 -0.27)"/><path class="cls-4" d="M26.88,49.43a1.14,1.14,0,0,0,.11-.11Z" transform="translate(-0.39 -0.27)"/><path class="cls-4" d="M27,49.37l0,.06C27,49.42,27.08,49.4,27,49.37Z" transform="translate(-0.39 -0.27)"/><path class="cls-4" d="M27,49.21a.21.21,0,0,1-.05.11l.05,0Z" transform="translate(-0.39 -0.27)"/><path class="cls-4" d="M20,53.12l0,0C20.13,53,20.1,53.05,20,53.12Z" transform="translate(-0.39 -0.27)"/><polygon class="cls-4" points="21.88 49.45 21.88 49.44 21.88 49.43 21.88 49.45"/><path class="cls-4" d="M22.21,49.94c0-.37.05-.32.07-.24l0-.86C22.26,49.21,22.22,49.57,22.21,49.94Z" transform="translate(-0.39 -0.27)"/><path class="cls-4" d="M20.87,51.23a.9.9,0,0,0,.28,0c.4.23.27.12.63.2-.91-.12,0-.37-.94-.53l.2,0s.05,0,0,0c.45,0-.65-.17-.5-.24a.77.77,0,0,1,.31.06,1.13,1.13,0,0,1-.21-.12s.17.05.15.06l-.06-.11,0,0c-.14-.07-.34-.19-.43-.25.13,0,.09.05.2.1l-.2-.16c.23.09.44.24.4.25.87.37-.21-.15.31,0l.1.08a6.21,6.21,0,0,1,.62.32c-.16-.11-.77-.41-1-.57.06,0,.09,0-.07-.1.3.19.23.12.22.08l.39.28-.48-.39a3.88,3.88,0,0,1,.6.43c.06,0-.49-.37-.55-.48.15.08,0-.08-.21-.38.13.1.23.25.34.34l-.3-.34.15.15a5.33,5.33,0,0,1-.46-.58c-.18-.2-.08-.13,0,0s.42.42.22.12c.11.12.2.26.33.43-.19-.35-.13-.26-.37-.74l.25.29a3,3,0,0,1-.51-1l-.29-.36a1.89,1.89,0,0,1,.05-.23,1.67,1.67,0,0,1,.19.4l0-.1a2.21,2.21,0,0,1,.34.65l-.19-.27a5.7,5.7,0,0,0,.41.82.54.54,0,0,1,0-.12c0,.07.07.14.1.18s0-.05-.06-.16l.28.48-.1-.19a2.42,2.42,0,0,1,.25.31c-.17-.49-.34-1.21-.17-1.41a9,9,0,0,0,.27,1c-.18-.45-.05.19-.14.1a.92.92,0,0,1,.14.32,2.83,2.83,0,0,1,0-.41,1.32,1.32,0,0,0,.16.4c-.2-.68,0-.45,0-.66,0,.23.07.46,0,.41.15.51-.05-.81.1-.37,0,0,0,0,0,.09,0-.21.13,0,.12.16h0c.05.08.42,0,.44-.57l0,.81a11.13,11.13,0,0,1,.36-1.95c-.06.5-.12,1.68-.22,2,0,.07,0,.15.08,0a4.52,4.52,0,0,1,.09-.76c0,.55,0,.29,0,.77a3.3,3.3,0,0,1,.23-.87c0,.12-.18.77-.2.86a6.11,6.11,0,0,1,.3-.77,6.77,6.77,0,0,0-.23.87c0-.15.06,0,.1-.07l0-.17c0,.11.52-1.08.68-1a6.86,6.86,0,0,0-.48,1.07,9.32,9.32,0,0,1,1.53-2.19l-.1.22.33-.25a18.23,18.23,0,0,0-1.76,2.32c-.06.17-.13.26-.08.24a1.82,1.82,0,0,1-.21.33.68.68,0,0,1,0,.14,9.19,9.19,0,0,1,.62-.84,3.63,3.63,0,0,0-.42.47c.24-.46.87-1.3,1-1.22-.1.18-.6.82-.7,1,.11-.16.3-.3.22-.19l-.22.25c-.1.17.55-.61.26-.17,0,0-.46.59-.22.31.45-.52,1.79-2.14,2.2-2.53a3.11,3.11,0,0,1-.4.76c-.35.41-1,1-1.31,1.33a4.42,4.42,0,0,1,.35-.33c-.08.11-.39.39-.28.33.47-.46.07,0,.42-.39.19-.14,0,.09.05.07a10,10,0,0,1,1.45-1.15l-.37.34a.08.08,0,0,1,0,0,3.08,3.08,0,0,0-.32.53,5.69,5.69,0,0,1-.53.43c.09-.06.27-.17.27-.14-.47.4,0,0-.62.42a1.51,1.51,0,0,1,.6-.28c.48-.33.12-.21-.07-.12a3.62,3.62,0,0,1,1.61-.82c.13.08-.44.34-.35.31-.17.35,1.08-.35.56.2a6.56,6.56,0,0,1-1.1.55c-.14,0,.29-.31.29-.39l-.22.21c-.13,0-.22,0-.09-.09-.38.27-.15.47-.51.79a1.22,1.22,0,0,0,.42-.09l-.05,0c.34-.18.42,0,.59-.17.21,0,.53.05.33.26l-.45.14c.13,0,.28-.16.15-.17.18,0-.64.37-.07.3l.32-.17c.21.05.64.13.48.32.44-.14,0,0,.48-.23-.65.21.1-.45-.59-.14.61-.26.29-.26.83-.57-.15,0-.3.14-.2,0h-.13s0,0,0,0l-.23.14c-.33,0-.29-.16-.45-.16.08-.1.16,0,.33-.14h-.25c.34-.14.6-.45.76-.34l0-.18c.2-.2.31-.4.18-.42.09-.13-.34,0-.08-.08L27,48.12l.09,0c.09-.33-.49-.15.21-.93-.08,0-.17,0,0-.27l.32-.28s0-.08,0-.16-.07-.17-.32,0c.65-.71-.48-.15-.57-.28l-.34.34a1.54,1.54,0,0,0-.66.22l-.25.31c-.34.25-.19-.22-.47-.19.1-.12.14-.08.13,0,.1-.35-.16-.22-.39-.07s-.47.32-.47.07c-.12.11-.14.07-.15,0h0c0-.05,0-.11,0-.16a.42.42,0,0,0,0,.16.87.87,0,0,0-.25.12l.1-.32h0c0-.12-.12.16-.18.41a1.16,1.16,0,0,0-.16.2c.13-.53-.24.17-.13-.39-.14.27-.43.21-.58.79,0-.08,0-.12,0-.12s-.12-.13-.21,0l0-.42c-.08.19-.15.38-.22.56a1,1,0,0,1,0-.72c-.28.5-.23.19-.4.68v-.27s-.13.37-.16.15a.33.33,0,0,0-.14-.24.78.78,0,0,0-.31-.05,1.14,1.14,0,0,1-.78-.26c.31.79-.31-.36-.14.26-.08-.19-.18-.3-.16-.46-.16.19-.49-.3-.42.22-.12-.19-.08-.27-.15-.39,0,0,0,.17-.08.06s0-.16,0-.24c-.25,0,0,.61.3,1.15-.24-.26-.28-.22-.14.14-.14-.18-.32-.37-.22-.43-.08,0-.64-.26-.34.17-.1-.11-.13,0-.11,0-.17,0-.22-.06-.35,0l.11.07c.13.19.16.25.15.27s-.12,0-.1.08l-.05,0c-.37-.07.14.27-.28.17l.28.26c.61.59-.4-.11-.19.27l.17.08c.2.24-.89-.43-1-.36s-.09-.1-.12-.16c-.43,0,.38.31.43.57-.21-.1-.52-.41-.59-.28s.62.81.18.77a.78.78,0,0,1,.46.23c0,.14-.71.12-.19.44l-.14,0c.12.15.17.41.46.52-1.13-.09.46.55-.57.37V51l-.1,0c-.11.21.13.3.37.37a.33.33,0,0,1-.22,0c-.27.29-.23.36.26.52l-.35.07c.2,0-.64.55-.27.75a.42.42,0,0,1-.16,0c.19.11-.1.39-.28.64s-.23.44.44.15l.3,0c.15-.29.6-.28.84-.5.07,0-.45.45-.5.38l.07-.06c-.72.36-.31.45-.81.75A6.52,6.52,0,0,1,17,55.37a1.3,1.3,0,0,0,.43.1l.47-.5.14,0c-.07.12-.33.39-.44.37-.22.28.46-.23.57-.34.05.2-.67.58-.61.59l.15,0,0-.06c.29-.2.5-.42.63-.39s-.23.31-.2.33,0,0,.05,0l.21,0,.23-.39c.25-.19.18,0,.44-.43-.4.69.62.25.57.46.3-.28.41-.28.56-.24,0-.08.17-.53.26-.47-.42.91.08.39,0,1.05,0-.44.46-.11.45-.73.09.08-.08.35,0,.56.19-.18.33-.12.5,0s.38.2.48.14A1.34,1.34,0,0,1,22,55l.13.6c.05-.06.05-.69.14-.28a.56.56,0,0,1,0-.29c.5.59,1-.48,1.52.62-.07-.23,0-.25,0-.26a2.14,2.14,0,0,1,0-.46l.21.45c0-.45.23,0,.25-.46l-.07.08A15,15,0,0,0,24,53.16c-.1.58-.26-.85-.42,0,0-.13,0-.21,0-.36,0,.28-.09.34-.19.21v-.07c-.26.07-.37-.2-.66-.39l0,.33c-.06-.05-.07-.15-.1-.23-.08.49.17,0,.11.57-.09-.66-.45,0-.5-.76-.1,0,0,.38-.07.37l0-.2,0,.26a.89.89,0,0,1-.1-.47s0,0,.06-.06c-.08-.24-.23.08-.26,0l.09.13a.37.37,0,0,1-.2.07h-.1c-.06,0-.13.05-.24.25l0,.16c-.19.28,0-.17-.2,0l0,0c-.08.15-.15.23-.18.21a5.6,5.6,0,0,1,.22-.54c-.25.3-.15.24-.54.8l.11-.25c-.15.23-.22.35-.35.41.19-.21.19-.38.42-.67.26-.55-.58.56,0-.25-.6.7-.18.39-.32.54s-.44.52-.45.45.61-.89.52-.88l.06,0c.13-.18-.28.24-.05,0-.43.42,0,0-.57.51l.22-.12c-.17.14-.88.77-.7.46.14-.1.31-.25.41-.33s-.16.11,0-.06c.58-.54.25-.11.7-.53.21-.22-.48.4.14-.19-.81.74,0-.09-.65.47l.37-.32-.27.2.51-.42c-.21.17-.15.1-.05,0s.27-.24.15-.16a9.3,9.3,0,0,1-.75.66c-.49.28,1-.88.84-.8a2.17,2.17,0,0,1-.4.32,4.61,4.61,0,0,1,.43-.35c-.07,0-.39.28-.62.41.46-.34-.17.09-.31.13l.38-.24c.25-.23-.78.45-.47.17l.51-.26-.13,0,.42-.23c-.3.14-.22.07-.09,0-.26.14-.67.33-.67.27.22-.13.34-.14.3-.18.23-.08.51-.2.17,0l.34-.16c.26-.13.07-.07.07-.09l-.09.06-.48.12a3.19,3.19,0,0,1,.34-.13,1.7,1.7,0,0,1-.22,0c.29-.1.59-.2.72-.23l-.31.06.45-.15c.17,0-.54.08-.32,0h-.14c.07-.06.41-.09,0-.13h.49a5.91,5.91,0,0,1-.79-.06c-.14-.07.41,0,.55,0-.24,0-.73-.12-.31-.21C20.92,51.17,20.84,51.21,20.87,51.23Zm-.06-.87c.06,0,.25.18.07.09C20.54,50.24,20.71,50.32,20.81,50.36Zm.11-1.31c0,.11,0,.05-.1-.07S20.85,49,20.92,49.05Zm5.95-.31h0C27,48.57,27,48.64,26.87,48.74Zm-.2.27.15-.06c-.09,0-.08,0-.05-.08S26.6,49,26.67,49Zm-8.33,6.33,0-.09C18.54,55.15,18.44,55.24,18.34,55.34Z" transform="translate(-0.39 -0.27)"/><path class="cls-4" d="M21,49.5l-.11-.18A.73.73,0,0,0,21,49.5Z" transform="translate(-0.39 -0.27)"/><polygon class="cls-4" points="20.61 51.24 20.6 51.24 20.66 51.23 20.61 51.24"/><path class="cls-4" d="M23.43,49.69l.14-.17A.92.92,0,0,0,23.43,49.69Z" transform="translate(-0.39 -0.27)"/><path class="cls-4" d="M27.08,49.91,27,49.79c0,.06-.08.1-.14.15S27.08,49.86,27.08,49.91Z" transform="translate(-0.39 -0.27)"/><path class="cls-4" d="M24.81,51.06s0,0,0,0H25C25,51.05,24.89,51,24.81,51.06Z" transform="translate(-0.39 -0.27)"/><path class="cls-4" d="M25.91,50.26c-.29.06-.2.11-.16.17h0C26.15,50.38,26,50.31,25.91,50.26Z" transform="translate(-0.39 -0.27)"/><path class="cls-4" d="M25.75,50.45s0,0,0,.06C25.91,50.5,25.79,50.48,25.75,50.45Z" transform="translate(-0.39 -0.27)"/><path class="cls-4" d="M26.83,49.18c-.08.07.38-.12.25,0C27.46,49,26.67,49,26.83,49.18Z" transform="translate(-0.39 -0.27)"/><polygon class="cls-4" points="24.55 50.22 24.91 50.13 24.63 50.15 24.55 50.22"/><path class="cls-4" d="M25.29,50l-.12.12a.28.28,0,0,1,.12,0C25.32,50,25.4,49.92,25.29,50Z" transform="translate(-0.39 -0.27)"/><path class="cls-4" d="M25.29,50.07s0,.07.05.07A.08.08,0,0,0,25.29,50.07Z" transform="translate(-0.39 -0.27)"/><polygon class="cls-4" points="24.46 50.12 24.55 50.08 24.58 50.01 24.46 50.12"/><path class="cls-4" d="M25.56,48.85l-.1,0c-.13.07-.22.16-.17.16A.9.9,0,0,0,25.56,48.85Z" transform="translate(-0.39 -0.27)"/><path class="cls-4" d="M24.45,49.75l.29-.19-.47.26Z" transform="translate(-0.39 -0.27)"/><path class="cls-4" d="M24.37,49.6c-.13.08-.37.16-.35.22S24.25,49.74,24.37,49.6Z" transform="translate(-0.39 -0.27)"/><polygon class="cls-4" points="24.02 48.26 24.05 48.25 24.68 47.56 24.02 48.26"/><path class="cls-4" d="M22.51,50.19c0,.16.19-.43.14-.22.09-.17,0-.17.11-.31A1.44,1.44,0,0,0,22.51,50.19Z" transform="translate(-0.39 -0.27)"/><path class="cls-4" d="M22.76,49.66l.07-.11Z" transform="translate(-0.39 -0.27)"/><polygon class="cls-4" points="23.72 55.42 23.79 55.56 23.75 55.33 23.72 55.42"/><path class="cls-4" d="M24.26,55.17l0,.44,0-.4S24.27,55.27,24.26,55.17Z" transform="translate(-0.39 -0.27)"/><path class="cls-4" d="M21.63,50.82l-.09-.06-.13-.08Z" transform="translate(-0.39 -0.27)"/><polygon class="cls-4" points="20.9 50.57 20.91 50.57 20.52 50.48 20.9 50.57"/><path class="cls-4" d="M21.72,51.38h-.06C21.73,51.38,21.22,51.35,21.72,51.38Z" transform="translate(-0.39 -0.27)"/><path class="cls-5" d="M82.61,22.61l-.2-.42-.32.35-.23-.41-.3.37-.28-.39-.2.43-.32-.34-.2.42-.33-.34-.22.43-.45-.38-.43.38-.44-.38-.44.38-.43-.38-.14.35v-.39l-.19.35v-.4l-.33.22.41-.19L77.22,22l.41-.1-.35-.23.41-.1-.26-.51.48-.33-.28-.51.45-.36-.32-.49.48-.68L78,17.94l.48-.68-.29-.79.48-.68L78.55,14l.7-1.7-.07-1.84.69-1.71L79.8,6.86l.46-.63L80,5.49l.46-.64-.3-.74.45-.61.28-.32.51.34.47-.41.49.39L83,3.2l-.37.25.35.22-.41.1.35.23-.41.09.34.19-.38-.12.32.23-.38-.12.34.18-.42.35.35.43-.41.37.35.43-.41.35.06,1.84-.69,1.71.07,1.84-.7,1.72L81,15.33l-.47.67.29.78-.47.68.29.78-.47.68.3.51-.46.39.3.52-.46.39.3.49-.06.17,0-.39.17.36,0-.4.15.36.49-.38.51.38.5-.38.5.38.52-.38.51.45.6-.32.5.45.6-.32.51.46-.11-.35.3.25-.27-.28.31.24-.14-.35.43.39.42-.39.43.39.42-.39.34.37.24.05-.42.13L88,22l-.42.13.34.31-.36-.19.13.37-.29-.27.12.38-.2-.3-.63.39L86,22.42l-.65.39-.65-.39-.66.39-.26-.41-.33.36-.22-.43-.35.34Z" transform="translate(-0.39 -0.27)"/><path class="cls-5" d="M90,22.25l0-.46-.44.14.1-.45-.45.08.14-.42-.63-.33.11-.71-.56-.44.23-.68-.48-.54.33-.67L88,17.13l.43-.61-.3-.69.51-.56-.27-.52.49-.32-.22-.55.53-.27L89,13l.58-.24,0-.62.61-.11.08-.62.62,0,0-.47.44.19.09-.47.42.24.12-.47.37.3.18-.44.34.33.21-.43.3.35.41-.39.42.39.42-.39.42.39.42-.39.4.49.58-.19.22.58h.61l0,.6.58.21-.12.6.54.29-.2.59.49.36-.29.61.41.53-.43.52.29.6-.52.44.2.71-.57.46.1.72-.62.38,0,.74-.67.32-.08.75-.71.24-.17.74-.74.14,0,.51L94.3,22l-.12.49-.45-.24-.25.46-.43-.38-.43.38-.42-.38-.43.38-.43-.38-.28.36-.18-.43-.36.29L90.44,22ZM93.69,20h.49l-.12-.48h.49L94.42,19l.49,0-.11-.54.54-.14-.16-.53.52-.19-.2-.51.49-.23-.26-.47.47-.28-.29-.46.45-.3L96,15.13l.39-.16L96,14.79l.38-.19-.29,0,0-.37-.11.38-.11-.38-.11.38v-.34l-.29-.12.4-.23-.39-.25.35-.3-.44-.12.29-.31h-.42l.28-.32-.42,0,.2-.39-.22.32.07-.38-.16.35.07-.38-.26.29.32-.23-.38,0,.36-.15-.39,0,.34-.2-.46.09v-.45l-.36.28-.15-.43-.25.37-.26-.34-.06.43-.34-.27v.43l-.37-.22,0,.44-.41-.19.06.44-.43-.14.12.43-.52,0,.1.51-.51.09.17.49-.5.17.24.47-.48.23.28.45-.46.25.3.43-.44.45.36.52-.37.51.43.46-.3.56.5.36-.21.57.54.27-.12.59.58.19-.17.42.44-.11,0,.44.37-.24.15.44L92.46,21l.23.31L92.52,21l.23.31-.17-.35.47.15V20.6l.48.1-.05-.49Z" transform="translate(-0.39 -0.27)"/><path class="cls-5" d="M99.5,15.92l.24-1.29-.49-1.22.29-1.28-.46-1.24.27-1.13.32-.33.46.39.46-.39.46.39.65-.26-.22,1.77L102,13l-.22,1.73.54,1.65-.22,1.75.48-.85.79-.48.15-.91.8-.48.17-.91.94-.66.28-1.1.92-.69.27-1.11.88-.67.3-.4.5.34.44-.4.48.38.63-.28-.39.26.35.26-.42.13.35.27-.39.06-.42,1.28-1.07.85-.43,1.3-1.07.86-.44,1.3-1.07.87-.41,1.33-1,.92-.35,1.34-.93.89-.32.36-.41-.39-.42.39-.42-.39-.54.34.15-1.38-.54-1.16.23-1.27-.53-1.17Z" transform="translate(-0.39 -0.27)"/><path class="cls-5" d="M108.76,22l.08-.66-.57-.34.21-.62-.49-.44.32-.58-.4-.56.41-.56-.33-.61.48-.51-.25-.64.52-.46-.19-.66.56-.4-.14-.68.58-.36,0-.71.66-.3.07-.71.69-.2.17-.7.48.12.06-.49.44.22.16-.47.36.31.44-.39.44.39.45-.39.44.39.46-.39.23.45.4-.28.13.48L116,11l0,.49.47-.11,0,.48.49,0-.12.48.49,0-.14.54.53.17-.12.54.54.14-.1.56.57.19-.18.57.5.32-.29.52.42.49-.62,0-.16.54-.53-.2-.31.47-.44-.36-.59.39-.6-.39-.59.39-.6-.39-.6.39-.37-.42-.42.35-.35-.43-.43.34-.32-.44-.34.34-.22-.43-.35.33-.2-.44-.16.24-.38,0,.33.27-.42.1.34.27-.42.11.37.45-.38.43.41.39-.34.46.45.35-.28.48.49.25-.18.53.54.14-.06.56.41-.17v.44l.34-.27.09.43.23-.34.51.23.24-.54.57.12.15-.57.59,0,.29-.62.66.18.5-.46.57.39.73-.25-.37.27.35.24-.41.11.35.25-.4,0,0,.52-.57,0-.14.57-.57-.11-.19.55-.52-.19-.22.51-.49-.24-.27.48-.44-.28-.46.38-.47-.38-.47.38-.47-.38-.48.38-.42-.46L110,23l-.23-.57h-.62Zm6.35-8.07.07-.62-.6-.16-.06-.63h-.62l-.26-.61-.16.46-.42-.18.06.45-.44-.11.11.44-.46,0,.13.45H112l.16.44-.48,0,.24.42-.47.11.24.42-.47.12.21.22.26.41.51-.3.37.47.51-.29.37.46.59-.29.48.46.57-.33.51.42.53-.38.15.34-.17-.35.23.32-.16-.36.31.08-.55-.24.14-.58-.55-.23.12-.61Z" transform="translate(-0.39 -0.27)"/><path class="cls-5" d="M133.38,21.47l-.21-.17,0,.46-.41-.22-.05.46-.32-.27-.3.39-.33-.38-.31.4-.34-.38-.32.4-.26-.44-.43.26-.08-.49-.49.09.09-.49-.55-.17.13-.57-.53-.23.18-.55-.52-.27.24-.56-.44-.43.4-.47-.31-.53.49-.37-.19-.58.56-.26-.07-.62.61-.13.06-.62h.58l0-.58.57-.05v-.57l.6-.16L131,13l.32-.46-.43-.35.35-.44-.41-.38.38-.48-.36-.5.44-.43L131,9.38l.48-.38-.22-.55.52-.31-.19-.58.54-.27L132,6.71l.58-.23,0-.63.61-.12.07-.62.62,0,0-.52.49.16.16-.49.43.28.29-.42.34.36.31-.4.31.39.33-.38.27.41.39-.27.09.48.47-.13-.06.49h.49l-.18.45.48.08-.25.41.45.16-.31.36.42.28-.39.33.36.35-.43.26.3.41-.53.3.16.58-.55.23.07.59-.58.14,0,.61-.61.08-.07.61-.62,0-.12.6-.48-.11,0,.49-.48-.09,0,.49-.48-.09.06.47-.46-.1.08.46-.46-.09.1.45-.34-.16.38.07-.38-.06.38.09-.38,0,.54.48-.21.69.54.48-.21.69.54.47h.06l-.3-.29h.42l-.31-.29h.42l-.24-.5.49-.26-.27-.48.48-.29-.15-.62.45.38.4-.39.4.39.4-.39.29.36.26.1-.43.17.34.31-.42.18.33.32-.51.32.21.57-.53.27.17.58-.55.24.15.54-.54.18.14.55-.55.17.15.49-.33.24.44.17-.33.34.44.17-.31.35.43.13-.3.34.43.11-.3.33h.33l0,.37.14-.39.13.39.13-.39,0,.27.33.2-.42.18.33.31-.42.18.25.45-.5-.35-.38.39-.4-.37-.38.39-.36-.37-.38,0,.15-.49-.5-.11.21-.47Zm-1.89-.94.41.11-.15-.41.43.09-.17-.41.43.06-.19-.41.45,0-.2-.4.44,0-.25-.24.15-.83-.59-.62.14-.85-.6-.62.14-.86-.18.37-.45-.05.17.42-.45,0,.17.43-.5.06.19.46-.48.14.27.43-.45.25.43.3-.32.39.45.23-.27.43.48.16-.22.46.49.11-.18.47.49.06-.13.49.31-.24-.3.25.3-.24h-.26Zm1.85-9h.2v-.51l.5.08v-.51l.5.1.07-.58h.58l0-.58.57-.07,0-.58.52-.11-.18-.5.5-.2-.26-.46.45-.31L136.33,7l.25-.5-.51-.21.13-.54-.55-.1.29-.25-.32.21.32-.21-.37.11.1-.22,0,.45-.41-.17.07.44-.43-.14.11.44-.44-.1.14.44-.45-.06.18.41H134l.21.46-.49.14L134,8l-.49.15.23.45-.48.18.28.43-.46.23.32.39-.43.3.39.29-.37.3.39.29-.36.37Z" transform="translate(-0.39 -0.27)"/><path class="cls-5" d="M148.72,22.48l.34-.61-.42-.58.39-.6-.36-.61.43-.56-.32-.66.46-.58-.32-.67.45-.58-.32-.67.49-.53-.28-.65.48-.51-.27-.66.48-.52-.31-.18.26.28-.24-.3.26.28-.29-.2.46-.39-.3-.53.46-.4-.3-.53.46-.4-.21-.79.54-.63-.21-.81.54-.64-.21-.8.45-.3L151,6.72l.45-.31L151.12,6l.45-.31-.35-.3.42-.19-.35-.31.42-.2-.34-.33.43,0L151.55,4l.41.07-.25-.34.3.15.37-.38.43.39.43-.39.42.39.51-.38-.3.31.35.24-.41.1.35.24-.41.09.37.14-.39-.06.36.15-.38-.05.22-.08.5.41.64-.27.44.54.69-.14.35.6h.76l.34.69.76.07.27.71.76.16-.09.58.51.26-.32.47.36.45-.47.32.23.4-.47.05.19.44-.47,0,.14.45-.49,0,.07.49-.48-.08v.49l-.47-.13-.37.71-.81.05-.4.69h-.81l-.44.67-.72-.08-.42.59L153,14l-.49.54-.79-.2.29.43-.43.21.33.35-.43.22.33.35-.46.5.32.6-.45.52.33.59-.45.53.36.53-.42.47.37.52-.41.48.35.43-.1.27.08-.39.08.39.08-.39-.1.25.34.16-.41.12.35.26-.41.12.34.28-.43,0,.26.33-.41-.05.25.33-.3-.14-.38.38-.43-.39-.44.39-.44-.39-.46.39.23-.23-.37-.13h.39l-.3.05ZM155.24,11l.63,0,.14-.61.64-.07,0-.63.62-.18L157,9.3l.39.06-.33-.23.4.06L157.13,9l.2-.44-.53-.1,0-.53-.54,0-.06-.54-.56.1L155.56,7l-.55.11-.14-.54-.52.14,0-.42-.3.3L154,6.16l-.3.31-.27-.37.28.5-.44.28.32.42-.44.28.31.43-.57.89.17,1-.58.89.18,1.06-.58.93.29-.25.33.27,0-.43.34.27,0-.44.62.12.26-.58.63.08.24-.59Z" transform="translate(-0.39 -0.27)"/><path class="cls-5" d="M159.69,22l.08-.66L159.2,21l.21-.62-.49-.45.32-.57-.4-.56.41-.56-.32-.61.47-.51-.25-.64.52-.46-.19-.66.56-.4-.14-.68.59-.36,0-.71.66-.3.07-.71.7-.2.17-.7.48.12.06-.49.44.22.15-.47.36.31.44-.39.44.39.45-.39.45.39.45-.39L166,11l.41-.28.12.48L167,11l0,.49.48-.12-.06.49.49,0-.12.48.5,0-.15.54.54.17-.13.54.54.14-.1.56.57.19-.18.57.5.32-.29.52.42.49-.62,0-.16.54-.53-.2-.31.47-.44-.36-.59.39-.59-.39-.6.39-.59-.39-.6.39-.37-.42-.43.35-.34-.43-.43.34-.33-.44-.34.34-.22-.43-.35.33-.2-.44-.16.24-.38,0,.34.27-.42.1.33.27-.42.11.37.45-.38.43.41.39-.33.46.45.35-.29.48.5.25-.19.53.54.14-.06.56.42-.17v.44l.35-.27.09.43.22-.34.52.23.23-.54.57.12.16-.57.58,0,.29-.62.66.18.5-.46.57.39.73-.25-.37.27.35.24-.41.11.35.25-.4,0,0,.52-.58,0-.14.57-.56-.11-.2.55-.52-.19-.22.51-.49-.24-.27.48-.44-.28-.45.38-.47-.38-.47.38-.48-.38-.47.38-.43-.46-.58.21-.24-.57H160ZM166,13.91l.08-.62-.61-.16,0-.63h-.63l-.26-.61-.16.46-.41-.18.06.45-.45-.11.12.44-.47,0,.13.45h-.47l.16.44-.48,0,.24.42-.47.11.24.42-.47.12.2.22.26.41.51-.3.37.47.51-.29.37.46.6-.29.48.46.57-.33.51.42.53-.38.14.34-.17-.35.23.32-.16-.36.31.08-.55-.24.14-.58-.55-.23.13-.61Z" transform="translate(-0.39 -0.27)"/><path class="cls-5" d="M176,20.44l.33-.37-.42-.26.36-.35-.4-.29.38-.32-.39-.23.4-.2-.35-.27.42-.17,0-.12-.57.21,0,.64-.62.2,0,.64-.63.16-.12.76-.73.19-.23.72-.75.1-.34.71-.65-.27-.49.45-.57-.35-.54.4-.53-.41-.32.33-.1-.45-.41.21.06-.45h-.47l.29-.52-.42-.4.41-.41-.32-.47.47-.34-.23-.69.57-.44-.11-.71.63-.35v-.72l.7-.28.11-.75.73-.2.2-.72.74-.11.12-.53.53.16.19-.52.51.22.3-.49.49.38.49-.39.49.39.49-.39.48.39.54-.21.19.57.6,0v.61l.56.16v.25L178,14.8l.09.39.15-.36-.17.25.44.6-.35.68.42.63-.36.67.41.64-.36.65.47.56-.21.71.57.46-.06.75.28-.27-.09.38.21-.33-.09.38.33-.18-.42.18.35.24-.41.12.35.25-.3,0-.35.37-.44-.38-.43.38-.43-.38-.47.38-.09-.65-.57-.15.13-.57-.52-.27Zm-5.26.25.75-.16.23-.77.76-.24.17-.79.73-.32.11-.79.73-.33.11-.8.73-.34.11-.78.23-.17-.42.05.17-.4-.4.17-.11-.43-.21.55-.56-.1-.09.55h-.56v.57l-.58.05v.58l-.57.08.05.57-.55.14.18.43-.46.05.24.4-.46.11.27.38-.45.12.29.37-.45.14.3.37-.45.16.36.21-.39.13.4.11-.35.22Z" transform="translate(-0.39 -0.27)"/><path class="cls-5" d="M181.57,22l0-.48-.46.14,0-.48-.48.09.09-.46-.5-.06.17-.47-.49-.14.25-.44-.47-.22.32-.41-.43-.29.37-.36-.39-.34.41-.31-.32-.45.45-.32-.31-.46.45-.32-.31-.46.48-.36-.24-.55.51-.32-.19-.57.54-.26-.09-.62.6-.2,0-.64.62-.09.13-.63.61.06.25-.56.57.22.38-.47.5.35.41-.38.42.38.42-.38.42.38.42-.38.32.47.46-.28.25.49.49-.22.18.5.5-.17.1.52.52-.1,0,.53.52,0,0,.55.5.23-.33.44.35.44-.34.18-.36.38-.42-.38-.43.38-.42-.38-.47.38.14-.56-.48-.13.17-.46h-.49l0-.49-.44.14v-.47l-.44.18,0-.47-.39.22-.12-.43-.31.33-.14-.43-.32.32-.16-.43-.2.45-.41-.22,0,.46-.45-.14.07.47-.6.11,0,.62L183,14l.12.6-.54.29.21.58-.51.35.25.56-.48.39.3.54-.39.3.4.3-.35.35.43.26-.32.39.45.21-.24.43.48.11-.16.47.49,0v.52l.51-.1.12.52.48-.21.28.48.27-.49.48.22.18-.5.5.19.16-.5.59.19.42-.46.5.37.51-.36.31.37.32.11-.42.12.35.25-.41.12.32.32-.55-.12-.13.49-.47-.19-.13.49-.45-.22-.14.46-.4-.26-.18.45-.37-.31-.25.44-.48-.39-.48.39-.48-.39-.48.39-.48-.39-.34.33-.2-.44-.41.28-.13-.47Z" transform="translate(-0.39 -0.27)"/><path class="cls-5" d="M190.25,22l.08-.66-.57-.34.21-.62-.49-.44.32-.58-.4-.56.41-.56-.32-.61.47-.51-.25-.64.52-.46-.19-.66.56-.4-.14-.68.59-.36,0-.71.66-.3.07-.71.7-.2.17-.7.48.12.06-.49.44.22.15-.47.36.31.44-.39L195,11l.45-.39.45.39.45-.39.23.45.41-.28.12.48.44-.21,0,.49.48-.11-.06.48.49,0-.12.48.5,0-.15.54.54.17-.13.54.54.14-.1.56.57.19-.18.57.5.32-.29.52.42.49-.62,0-.16.54-.53-.2-.31.47-.44-.36-.59.39-.59-.39-.6.39-.6-.39-.59.39-.37-.42-.43.35-.34-.43-.43.34-.33-.44-.34.34-.22-.43-.35.33-.2-.44-.16.24-.38,0,.34.27-.42.1.33.27-.42.11.37.45-.38.43.41.39-.33.46.45.35-.29.48.5.25-.19.53.54.14-.06.56.42-.17v.44l.35-.27.09.43.22-.34.52.23.23-.54.57.12.16-.57.58,0,.29-.62.66.18.5-.46.57.39.73-.25-.37.27.35.24-.41.11.35.25-.4,0,0,.52-.58,0-.13.57-.57-.11-.2.55-.52-.19-.22.51-.49-.24-.27.48-.44-.28-.45.38-.47-.38-.47.38-.48-.38-.47.38-.43-.46-.58.21-.24-.57h-.62Zm6.35-8.07.08-.62-.61-.16,0-.63h-.63l-.26-.61-.16.46-.41-.18.06.45-.45-.11.12.44-.47,0,.13.45h-.47l.16.44-.48,0,.24.42-.47.11.24.42-.47.12.2.22.26.41.51-.3.37.47.52-.29.36.46.6-.29L196,16l.57-.33.51.42.52-.38.15.34-.17-.35.23.32-.16-.36.31.08-.55-.24.14-.58-.55-.23.12-.61Z" transform="translate(-0.39 -0.27)"/><path class="cls-5" d="M72.43,54.55l.35-.28L72.37,54l.39-.26-.37-.29.42-.23-.36-.32.42-.24-.36-.32.42-.24-.36-.32.45-.32L72.71,51l.45-.32-.31-.46.45-.32L73,50l.29-.26-.3.24.29-.26-.35.08.58-1.08-.18-1.2.58-1.07-.18-1.21.59-1.11-.38.18-.15-.4-.2.38-.16-.4L73,44.2l.39-.28-.34-.29.42-.16-.34-.29.4-.1V42.8l.19.38.17-.39.21.37,0-.28.46-.37L74.25,42l.46-.38-.3-.51.46-.39-.36-.28.41-.21L74.56,40l.41-.21-.36-.3.44-.29-.32-.41.45-.29L74.86,38l.44-.29-.34.09.29-.26-.3.24.28-.26-.35.08.47-.44-.29-.58.47-.44-.29-.57.47-.42,0-.34.36.29.13-.44.32.32,0-.26v-.21l-.33.32L76,34.41l-.33.32v-.28l-.35-.2.42-.14-.34-.28.42-.15-.24-.42.47.37.39-.39.39.39.39-.39.37.39.85-.24.69.56.89-.14.62.64.89,0,.53.7.88.08.42.78.85.22.29.82.43.07-.32.34.38.27-.42.21.28.38-.52.14.11.53-.53,0v.54l-.53-.07-.1.57L82.72,40l-.12.56-.56-.1-.16.55-.5-.15-.1.51-.5-.16-.12.5-.59,0,.53,1-.21,1.11.6,1-.12,1.12.66.92,0,1.24.69,1-.06,1.24.68,1.05,0,1.06-.33.33L82,52.34l-.47.39L81,52.34l-.56.36-.06-1.23-.7-.89,0-1.12-.69-.89.07-1.12-.64-.81.15-1-.57-.85.22-1-.41-.73-.3-.19-.12.5L77,43.18l-.13.5-.57-.08.18,1.18-.57,1,.19,1.15-.58,1,.19,1.16-.33.09.3-.24-.29.26.31-.24-.33.11.3.51L75.2,50l.3.51-.46.38.3.51-.42.26.35.35-.41.28.37.34-.4.29.35.41-.41.37.36.42-.41.37.22.59-.51-.38-.47.39-.46-.39-.47.39-.44-.39-.21.09h.4l-.37-.14.32-.18Zm5.64-19.3-.31-.1.37.17-.4,0,.36.17H77.7l.23.39-.46.11.29.38-.44.19.35.3-.29.17.24-.3-.22.32.25-.3-.3.14.32.45-.45.34.31.46-.46.33.32.46-.41.2.36.28-.41.2.36.29-.41.2.34.33-.43.2.33.34-.43.21.28.18.17.18v-.46l.41.21v-.46l.42.2-.3-.22.39,0-.38-.09.39,0-.28-.23.61.17.28-.54.59.15.23-.57.61.09.16-.56.58.09.14-.57.58.06.11-.58.4.17-.16-.4.42.1-.24-.36.42-.13-.54-.1.06-.52-.52,0,0-.52-.51.1-.12-.52-.52.13-.13-.53-.52.15-.15-.52-.45.22L79,35.18l-.43.26L78.34,35Z" transform="translate(-0.39 -0.27)"/><path class="cls-5" d="M85.35,51.91l0-.46-.44.14.1-.45-.45.08.15-.42-.63-.33.1-.71-.56-.45.23-.68-.48-.53.33-.67-.39-.64.43-.62-.3-.68.51-.56-.27-.53.49-.32L84,43.53l.52-.27-.16-.57.58-.23,0-.62.61-.11.08-.62.62,0,0-.48.44.2.09-.47.42.23.12-.47.37.31.18-.44.34.32.21-.42.3.35.42-.39.41.39.42-.39.42.39.43-.39.39.49.59-.19.21.57h.61l0,.6.58.2-.12.61.55.29-.21.58.5.37-.3.6.41.54-.43.51.29.61-.51.44.19.71-.57.45.1.73-.62.38,0,.73-.68.33-.08.75-.71.24-.17.73-.74.15,0,.5-.49-.16-.12.5-.45-.25-.24.47-.44-.39-.42.39-.43-.39-.43.39-.43-.39-.28.36-.18-.42-.36.29-.07-.46ZM89,49.65h.49l-.12-.47h.49l-.13-.47.49,0-.1-.54.53-.15-.16-.53.52-.18-.2-.51.49-.23-.26-.48.48-.27-.3-.46.45-.31-.36-.22.39-.16-.38-.18.38-.19h-.29l0-.37-.11.39-.11-.39-.11.39V44l-.29-.12.4-.23-.39-.25.35-.3-.44-.12.29-.31h-.42l.28-.32-.42,0,.2-.39-.22.32.07-.39-.16.36.07-.39-.25.3.32-.23-.39,0,.36-.15-.39,0,.34-.2-.46.09v-.45l-.36.27-.15-.42-.24.37-.26-.34-.07.43-.34-.27,0,.43-.37-.23V42l-.4-.2,0,.45-.42-.14.11.43-.52,0,.1.51-.51.09.17.49-.5.17.24.47-.47.22.27.45-.46.26.3.42-.44.46.37.52-.38.51.43.46-.3.56.5.35-.21.57.54.28-.11.59.57.19-.16.42.43-.11,0,.44.38-.24.14.44-.07-.38L88,51l-.17-.35.23.31-.16-.35.46.15v-.49l.48.09,0-.49Z" transform="translate(-0.39 -0.27)"/><path class="cls-5" d="M95.4,51.67l0-.48-.46.14v-.48l-.47.09.09-.47-.5,0,.17-.48-.49-.13.24-.45-.46-.21.32-.41-.43-.29.37-.37-.39-.34.4-.3L93.46,47l.45-.32-.31-.46.45-.32-.31-.46.48-.37L94,44.51l.52-.31-.19-.57.54-.26-.09-.63.6-.2,0-.63.62-.1.13-.62.6.06.25-.56.57.21.39-.46.5.35.41-.38.42.38.42-.38.41.38.43-.38.32.46.46-.27.24.49.49-.23.19.51.5-.17.1.52.52-.1,0,.53.52,0,0,.56.51.22-.33.45.35.44-.34.18-.36.38-.42-.39-.43.39-.42-.39-.47.38.14-.55-.48-.13.17-.47h-.49l0-.49-.45.14v-.47l-.44.18,0-.48-.39.22-.12-.42-.31.32-.14-.43-.32.33L99,41.65l-.2.46-.41-.23,0,.47-.45-.14.07.46-.6.12,0,.62-.58.2.12.61-.54.29.21.58-.51.35.25.56-.48.39.3.53-.39.3.4.31-.35.35.42.26-.31.39.45.2-.24.44.48.11-.16.47.49,0v.52l.51-.1.12.51.48-.2.28.48.27-.5.48.23.18-.5.49.19.17-.51.59.2.41-.46.51.37.51-.36.3.36.32.12-.41.11.35.26-.41.12.32.32-.55-.12-.14.49-.46-.2-.13.49-.46-.22-.13.47-.41-.27L100,52l-.37-.31-.25.43-.48-.38-.48.38-.48-.38-.48.38-.48-.38-.34.33-.21-.44-.4.27-.13-.47Z" transform="translate(-0.39 -0.27)"/><path class="cls-5" d="M104.3,52l.39-.52-.38-.54.4-.53-.38-.55.39-.57-.29.23-.1-.39-.09.39-.11-.39-.28.27.4-.21L103.9,49l.41-.1-.35-.24.4-.08-.27-.28.39.12-.25-.32.39.1-.27-.25.4-.32-.36-.39.41-.36-.37-.4.41-.35-.34-.43.43-.36-.35-.45.43-.36-.34-.45.49-.58-.26-.71.49-.58-.27-.71.5-.57-.25-.59.5-.41-.25-.61.51-.41-.25-.6.46-.4-.3-.54.47-.41-.3-.54.47-.41-.33-.45.44-.33-.32-.44.44-.33-.3-.51.68.18.43-.45.52.35.48-.39.34.33.31.07-.41.1.35.24-.41.1.35.25-.42,0,.28.29h-.41l.34.23-.4.13.32-.19-.22.32.24-.3-.21.32.32-.12-.51.64.26.77-.51.64.26.78-.5.63.25.59-.51.4.25.6-.5.41.25.6-.46.37.3.51-.46.38.31.51-.46.38.35.31-.42.21.36.31-.42.21.31.16.38-.2.09-.69.68-.2.11-.7.68-.18.3-.91.86-.4.27-.91.85-.43.33-1,.49.37.42-.38.42.38.42-.38.35.37.24,0-.41.1.34.25-.41.11.34.3-.77.36-.14.79-.75.3-.17.79-.75.28-.13.72-.71.22-.11.73-.7.24,0,.64-.1.49.59.2,0,.62.6.17v.63l.65.18.09.67.66.14.13.66.73.18-.41.22.35.26-.42.13.35.27h-.31l-.32.37-.4-.39-.4.39-.41-.39-.44.38-.19-.64-.61,0,0-.61-.61-.09v-.61l-.54,0,0-.54-.54-.06.08-.54h-.39l-.37,0,.1.53L107,48l.16.5-.52.2L107,49l-.37.33.39.3-.38.32.39.32-.38.41.37.43-.41.38L107,52l-.29.21-.41.38-.46-.39-.47.39-.46-.39-.5.39.23-.22-.37-.14h.39l-.3,0Z" transform="translate(-0.39 -0.27)"/><path class="cls-5" d="M124.52,47.71l.52-1-.26-1.12.49-1-.3-1.11.44-1.1-.33.21,0-.4-.17.37,0-.4-.33.22.41-.29-.36-.29.41-.22-.36-.31.39-.15-.07-.28.1.39.11-.39.11.39,0-.31.4-.41-.35-.56.41-.52-.37-.55.4-.53-.38-.66.4-.66-.37-.67.42-.64L125.4,35l.21.22,0-.38,0,.38,0-.38.21.26-.35-.24.41-.07-.36-.2.41-.08-.23-.36.48.38.42-.39.42.39.43-.39.41.39.88-.24.78.51.88-.28.81.46.87-.33.89.44.94-.32.87.47,1-.28.75.45.29.11-.42.14.34.29-.42.15.24.42-.47-.36-.39.38-.39-.38-.39.38-.38-.38-.75.27-.66-.47-.76.31-.69-.44-.74.35-.62-.43-.67.34-.6-.43-.67.32-.62-.45.19.26-.39,0,.38.09-.39,0,.38,0-.31.59.42.54-.36.57.38.56-.41.55.34.57-.43.5.33.58-.44.49.32.5-.14.26.15-.36,0,.39.15-.37,0,.4.84-.38.83.38.84-.38.85.38.84-.38,0,.4.2-.34,0,.4.22-.34-.16.26.35.19-.42.14.34.27-.41.14.23.42-.5-.37-.43.39-.43-.39-.43.39-.42-.39-.16.31.3-.25-.31.24.29-.26-.17.3-.55-.39-.56.39-.56-.39-.57.39-.56-.39.19.23-.38-.06.38.07-.38-.06.38,0-.45,1.05.31,1.11-.49,1,.27,1.11-.51,1,.24,1.18-.48,1.1.31,1.16-.42,1.12.31,1.3-.59-.34-.45.38-.47-.38-.46.38-.34-.34-.32-1,.42-1.16-.32-1.19.49-1.14Z" transform="translate(-0.39 -0.27)"/><path class="cls-5" d="M134.64,51.63l.08-.65-.57-.34.21-.63-.49-.44.32-.57-.4-.56.41-.56-.32-.62.47-.5-.25-.65.52-.45-.19-.66.56-.41-.14-.67.59-.36,0-.72.66-.29.07-.72.7-.19.16-.71.49.12.05-.49.44.22.16-.46.36.3.44-.38.44.38.45-.38.45.38.45-.38.23.45.4-.28.13.47.44-.2,0,.48.47-.11-.05.49.49,0-.12.48.5,0-.15.55.53.17-.12.54.54.14L144,44l.57.19-.18.57.5.32-.29.52.42.49-.62,0-.16.54-.53-.2-.31.47-.44-.35-.59.39-.59-.39-.6.39-.6-.39-.59.39-.38-.42-.42.35-.34-.43-.44.34-.32-.44-.34.34-.22-.43-.35.32-.2-.43-.16.24-.38,0,.33.27-.41.09.33.27-.42.12.37.45-.38.42.41.4-.33.46.45.35-.29.48.5.25-.19.52.54.15-.06.56.41-.17v.44l.35-.28.09.43.22-.34.52.23.23-.53.57.11.15-.56.59,0,.29-.61.66.18.5-.46.57.39.73-.25-.37.26.35.24-.41.12.35.24-.4.06,0,.52-.58,0-.14.56-.57-.1-.19.54-.52-.18-.22.51-.49-.24-.27.48-.44-.28-.46.38-.47-.38-.47.38-.47-.38-.47.38-.43-.46-.58.21-.24-.57L135,52ZM141,43.56l.07-.61-.6-.17-.06-.62-.62,0-.26-.6-.16.46-.41-.18.06.45-.45-.12.12.45-.47-.05.13.45-.47,0,.16.45-.49,0,.24.42-.46.11.24.42-.47.12.2.22.26.4.51-.29.37.47.51-.3.37.47.6-.29.47.46.58-.33.51.42.52-.38.15.34-.17-.35.23.31-.16-.35.31.08-.55-.25.14-.57-.55-.23.12-.61Z" transform="translate(-0.39 -0.27)"/><path class="cls-5" d="M143.85,52.64l.39-.21-.36-.21.4-.15-.37-.21.4-.11-.29-.24.36.17-.25-.31.36.16-.12-.38.45.38.43-.39.43.39.42-.39.42.39.2-.14-.38,0,.37.08-.38,0,.19-.14.3.31.13-.44.37.28.11-.45.38.26.15-.47.46.2.1-.49.48.15,0-.51.37.18-.22-.35.4.05-.32-.25.41-.1-.41-.13.31-.29h-.42l.23-.36-.41.1-.15-.71-.72-.14-.22-.69-.73-.06-.29-.66-.75-.06-.24-.72-.73-.19L145,45l-.72-.37.41-.28-.35-.31.41-.23-.36-.31.41-.22-.28-.39.48-.14-.2-.45.49,0-.1-.48.5,0-.06-.49.5,0,0-.5.49.07.12-.54.55.11.18-.53.54.17.22-.52.52.22.26-.5.49.27.31-.46.44.32.57-.39.58.39L152,39l.58.39.59-.39.3.44.44-.28.2.48.48-.21,0,.39.34.18-.42.14.35.28-.42.14.24.41-.49-.37-.4.39-.4-.39L153,41l-.38-.38-.35.19-.07-.47-.39.28-.21-.43-.27.38-.38-.33-.23.46-.42-.27-.17.47-.45-.22-.15.5L149,41l-.11.52-.51-.14-.06.52-.44-.13.08.46-.46-.09.12.45-.45-.06.17.42h-.45l.26.36-.43.12.34.28-.36.2.42.06-.27.32.42-.08-.16.4.71.12.22.68.72.07.26.68.72,0,.3.7.75.15.15.74.7.3v.74l.38.23-.4.29.35.34-.43.24.31.4-.48.08.16.45-.48,0,.06.48-.45-.14-.18.55-.57-.13-.23.54-.56-.19-.28.51-.51-.25-.31.48-.48-.29-.34.46-.45-.32-.47.38-.47-.38-.47.38-.48-.38-.49.38,0-.4-.23.32.08-.38-.17.33Z" transform="translate(-0.39 -0.27)"/><path class="cls-5" d="M158,50.38l.13-.6-.53-.3.24-.56-.46-.4.34-.5-.39-.48.4-.48-.37-.51.42-.46-.34-.54.48-.5-.28-.64.48-.5-.28-.64.48-.51-.19.16v-.38l0,.38-.14-.43-.32.31-.1-.43-.33.3-.11-.43-.46.25-.23-.47-.45.28-.26-.47-.58.18.41-.24-.34-.28.41-.14-.34-.28h.31l.35-.37.44.39.43-.39.44.39.46-.39.09.44.29-.31,0,.42.3-.31.29.32-.24-.86.51-.68-.24-.82.51-.69-.24-.86.69.17.44-.45.51.35.48-.4.34.32.31.1-.41.11.35.24-.41.11.35.27-.36-.15.27.28-.32-.22.27.27-.36-.13.25.77-.5.64.26.77-.51.64.26.71V42l.32-.33.17.43.31-.33.06.35.3.12-.41.14.34.28-.42.15.27.41-.38-.36-.26.39-.27-.39-.28.39-.41-.32.26.56-.45.34.31.47-.45.33.31.47-.44.46.36.53-.4.51.39.5-.36.52.43.42-.27.54.51.31-.13.59.56.15-.16.35.29-.27-.13.37.29-.27,0,.41.38-.39.37.38.36-.4.38.38.46-.37-.32.33.34.26-.41.14.34.27-.38.06.06.35-.28-.31,0,.42-.29-.3-.08.43-.5-.38-.47.38-.48-.38-.48.38-.48-.38-.42.26-.15-.5-.51.1v-.52Z" transform="translate(-0.39 -0.27)"/><path class="cls-5" d="M167.3,52.46l.43-.41-.34-.49.44-.42-.34-.49.43-.42-.33-.5.44-.42-.32-.51.45-.4-.31-.52.58-1.09-.18-1.22.59-1.09-.18-1.22.56-1,.29-.29.46.39.46-.39.47.39.64-.25L171,43.15l.2,1.12-.57,1,.19,1.12-.56,1,.33.56-.44.47.32.56-.45.45.31.56-.46.53.31.62-.44.54.32.62-.33.39-.4.37-.47-.39-.47.39-.47-.39-.5.39.23-.23-.37-.14h.4l-.32,0Zm1.54-12.57.32-.56-.39-.46.42-.44-.32-.52.47-.37-.3-.28h.41l-.3-.29h.42l-.17-.4.47.37.43-.38.42.38.42-.38.38.38.25-.12-.36.17.4,0-.36.18.37,0-.12.32.14-.36v.39l.15-.37-.15.23.35.32-.41.28.35.37-.42.29.34.4-.46,0,.22.39-.45,0,.22.4-.36-.1-.31.39-.4-.38-.38.4-.4-.38-.39.39,0-.39-.22.32.09-.38-.13.34Z" transform="translate(-0.39 -0.27)"/><path class="cls-5" d="M176.31,45.58l.25-1.29-.5-1.22.29-1.28-.46-1.24.27-1.13.33-.33.46.38.46-.38.46.38.64-.26L178.3,41l.54,1.65-.23,1.73.54,1.65-.22,1.75.49-.85.78-.49.16-.91.79-.47.18-.91.93-.66.29-1.11.91-.68.27-1.12.88-.66.31-.4.5.34.44-.41.47.39.64-.28-.39.26.34.26-.41.13.34.27-.39.06L186,41.8l-1.07.85-.43,1.3-1.07.85L183,46.1,182,47l-.4,1.32-1,.92-.36,1.35-.93.89-.31.36-.42-.39-.42.39-.41-.39-.55.34.16-1.39-.55-1.16L177,48l-.52-1.17Z" transform="translate(-0.39 -0.27)"/><path class="cls-5" d="M191.65,50.1l.33-.37-.42-.27.36-.34-.4-.29.38-.33-.38-.23.4-.19-.35-.28.42-.16,0-.12-.57.2,0,.65-.61.19,0,.65-.64.16-.12.75-.73.2-.23.72-.75.1-.34.71-.64-.27-.5.45-.57-.35-.54.39-.53-.4-.31.32-.1-.44-.41.21.06-.46H184l.28-.51-.41-.4.4-.41-.32-.48.47-.34-.22-.68.56-.44-.1-.71.62-.35v-.73L186,46l.12-.74.72-.2.21-.72.73-.11.13-.53.53.15.19-.51.5.21.3-.49.5.39.49-.39.49.39.49-.39.48.39.53-.22.19.58.6,0v.61l.56.15v.26l0-.39.08.38.16-.36-.17.25.43.61-.34.67.41.64-.36.67.41.63-.36.66.48.56-.22.71.58.45-.07.76.29-.27-.09.38.2-.33-.08.38.32-.18-.41.17.35.25-.42.12.35.25-.29,0-.36.37-.43-.39-.43.39-.44-.39-.47.39-.08-.65-.57-.15.12-.57-.52-.28Zm-5.25.25.74-.16.23-.77.77-.25.16-.78.74-.32.1-.79.74-.33.11-.8.73-.34.1-.78.24-.17-.43,0,.17-.39-.39.17-.12-.43-.21.55-.55-.1-.09.55h-.56v.57l-.58,0v.57l-.57.09.05.57-.56.14.19.43-.47.05.24.4-.46.11.28.38-.46.12.29.37-.45.14.3.36-.45.17.37.2-.39.14.4.11-.35.22Z" transform="translate(-0.39 -0.27)"/><path class="cls-5" d="M196.59,51.94l.49-.27-.26-.48.48-.26-.27-.47.47-.27-.28-.46.46-.27-.29-.45.46-.28-.28-.44.46-.59-.31-.7.46-.6-.31-.69.46-.6-.2-1.12.57-1-.19-1.13.57-1-.19-1.14.62-1.06-.12-1.23.62-1.06-.12-1.23.6-1,.29-.29.46.38.46-.38.46.38.56-.36-.29.43.38.27-.39.27.38.28-.38.23.14.23-.05-.39,0,.39-.05-.39.13.24-.59.87.17,1.06-.59.88.16,1.06-.59.89.22,1-.53.81.22,1-.54.82.23.95-.5.84.26,1-.51.85.27,1-.51.85.28.45-.46.28.28.47-.47.28.28.47-.48.33.26.52-.5.3.24.53-.37.17-.4.38-.45-.38-.45.38-.45-.38-.54.36.32-.36-.34-.29.42-.16-.34-.22Z" transform="translate(-0.39 -0.27)"/></g></g></g></svg>